<svg width="144" height="40" viewBox="0 0 144 40" fill="none" xmlns="http://www.w3.org/2000/svg">
<rect width="144" height="39.8535" fill="#F9F9F9"/>
<path fill-rule="evenodd" clip-rule="evenodd" d="M60.4416 25.8289L58.9531 32.7492H55.5295L61.1858 7.66921H65.2414L70.5628 32.7492H67.102L65.6507 25.8289H60.4416ZM65.2414 23.038L64.0878 17.0461C63.7529 15.3344 63.418 13.1028 63.1581 11.316H63.0086C62.7488 13.1394 62.3754 15.446 62.0417 17.0461L60.8509 23.038H65.2414ZM83.6305 7V28.0982C83.6305 29.4757 83.705 31.4852 83.7788 32.7498H80.7652L80.5419 30.5549H80.4303C79.8349 31.8195 78.458 33.0481 76.6352 33.0481C73.2861 33.0481 71.2394 29.4007 71.2394 23.7828C71.2394 17.3823 73.9553 14.3681 76.8213 14.3681C78.272 14.3681 79.4255 15.0385 80.0581 16.4148H80.1326V7H83.6305ZM80.132 21.5495C80.132 21.2152 80.132 20.8058 80.0947 20.4325C79.9087 18.7957 78.9784 17.3817 77.7138 17.3817C75.5176 17.3817 74.774 20.4325 74.774 23.7822C74.774 27.5035 75.7415 30.1077 77.6021 30.1077C78.3836 30.1077 79.4249 29.6984 80.0203 27.5407C80.0947 27.243 80.132 26.7958 80.132 26.3877V21.5495ZM91.9624 33.0475C88.3534 33.0475 85.7479 29.9589 85.7479 23.7456C85.7479 17.1584 88.836 14.3675 92.1479 14.3675C95.7203 14.3675 98.2873 17.5677 98.2873 23.6706C98.2873 30.8526 94.7521 33.0475 91.999 33.0475H91.9624ZM92.0734 30.2944C94.2311 30.2944 94.7155 26.4615 94.7155 23.7084C94.7155 20.9913 94.2318 17.1218 91.9996 17.1218C89.6918 17.1218 89.2459 20.9913 89.2459 23.7084C89.2459 26.722 89.7669 30.2944 92.0368 30.2944H92.0734ZM100.396 7H103.893V16.7118H103.968C104.898 15.0751 106.163 14.3675 107.763 14.3675C110.851 14.3675 112.787 17.8654 112.787 23.4101C112.787 29.8844 110.145 33.0475 107.168 33.0475C105.382 33.0475 104.377 32.0794 103.595 30.4792H103.447L103.261 32.7492H100.247C100.322 31.5218 100.396 29.4751 100.396 28.0976V7ZM103.893 26.3486C103.893 26.7592 103.931 27.1685 104.042 27.4656C104.6 29.6618 105.68 30.1077 106.386 30.1077C108.47 30.1077 109.251 27.3546 109.251 23.6334C109.251 20.1726 108.433 17.3817 106.349 17.3817C105.195 17.3817 104.265 18.7585 104.004 20.061C103.93 20.4331 103.893 20.9175 103.893 21.289V26.3486H103.893ZM117.949 24.4142C117.986 29.0658 119.995 30.2187 122.116 30.2187C123.381 30.2187 124.46 29.9217 125.242 29.5489L125.763 32.0794C124.683 32.6375 123.046 32.9359 121.446 32.9359C116.907 32.9359 114.525 29.5123 114.525 23.9304C114.525 18.0137 117.241 14.3668 120.999 14.3668C124.758 14.3668 126.507 17.9764 126.507 22.517C126.507 23.4095 126.469 23.9683 126.432 24.4514L117.949 24.4142ZM123.195 21.9216C123.232 18.7213 122.116 17.0102 120.739 17.0102C118.915 17.0102 118.097 19.6522 117.986 21.9216H123.195Z" fill="#3C3B3B"/>
<path fill-rule="evenodd" clip-rule="evenodd" d="M35.8167 7.73621H46.2654V32.7492L35.8167 7.73621ZM28.4561 7.73621H18V32.7492L28.4561 7.73621ZM32.137 16.9544L38.7943 32.7492H34.4318L32.4409 27.7187H27.5679L32.137 16.9544Z" fill="#3C3B3B"/>
<path fill-rule="evenodd" clip-rule="evenodd" d="M126.21 14.321C126.315 14.3214 126.418 14.3427 126.515 14.3835C126.612 14.4242 126.699 14.4837 126.773 14.5585C126.846 14.6333 126.904 14.7219 126.943 14.8192C126.982 14.9165 127.001 15.0205 127 15.1254C127 15.5794 126.65 15.9335 126.206 15.9335C125.766 15.9335 125.409 15.58 125.409 15.1254C125.408 15.0201 125.428 14.9158 125.468 14.8184C125.508 14.721 125.566 14.6324 125.64 14.5577C125.715 14.483 125.803 14.4236 125.9 14.383C125.997 14.3424 126.101 14.3213 126.206 14.321H126.21ZM126.206 14.4456C125.853 14.4456 125.562 14.7501 125.562 15.1254C125.562 15.508 125.853 15.8082 126.21 15.8082C126.567 15.8119 126.853 15.508 126.853 15.1291C126.853 14.7501 126.567 14.4456 126.21 14.4456H126.206ZM126.056 15.5942H125.913V14.6962C125.988 14.6856 126.06 14.6745 126.168 14.6745C126.303 14.6745 126.392 14.7036 126.446 14.7427C126.5 14.7818 126.529 14.8426 126.529 14.9288C126.529 15.0466 126.45 15.1185 126.353 15.1471V15.1539C126.432 15.1682 126.486 15.2401 126.503 15.3722C126.525 15.5118 126.546 15.5651 126.561 15.5942H126.411C126.389 15.5651 126.368 15.4832 126.35 15.3654C126.328 15.2506 126.271 15.2079 126.157 15.2079H126.057V15.5942H126.056ZM126.056 15.0968H126.16C126.277 15.0968 126.379 15.054 126.379 14.943C126.379 14.8643 126.321 14.7855 126.16 14.7855C126.114 14.7855 126.081 14.7892 126.056 14.7929V15.0968ZM47.6431 7.73621C47.7479 7.73669 47.8516 7.75793 47.9482 7.7987C48.0448 7.83947 48.1324 7.89897 48.2058 7.97376C48.2793 8.04855 48.3372 8.13714 48.3762 8.23444C48.4153 8.33173 48.4347 8.43579 48.4333 8.54061C48.4333 8.99461 48.0828 9.34875 47.6394 9.34875C47.1997 9.34875 46.8418 8.99523 46.8418 8.54061C46.8412 8.43539 46.8614 8.33109 46.9012 8.23368C46.941 8.13627 46.9996 8.04767 47.0737 7.97295C47.1478 7.89823 47.2359 7.83885 47.333 7.79823C47.43 7.75761 47.5342 7.73653 47.6394 7.73621H47.6431ZM47.6394 7.86087C47.2853 7.86087 46.9956 8.16539 46.9956 8.54061C46.9956 8.92328 47.2853 9.22346 47.6431 9.22346C48.0004 9.22718 48.2869 8.92329 48.2869 8.54434C48.2869 8.16539 48.0004 7.86087 47.6431 7.86087H47.6394ZM47.4893 9.00949H47.346V8.11143C47.4301 8.09748 47.5151 8.09043 47.6003 8.09034C47.7362 8.09034 47.8255 8.11825 47.8788 8.15795C47.9328 8.19702 47.9613 8.25842 47.9613 8.34401C47.9613 8.46185 47.8825 8.53379 47.7858 8.56232V8.56914C47.8645 8.58341 47.9185 8.65535 47.9365 8.78808C47.9576 8.92763 47.9793 8.98096 47.9935 9.01011H47.8434C47.8217 8.98096 47.8 8.89909 47.7827 8.78126C47.761 8.66652 47.7039 8.62372 47.5892 8.62372H47.4893V9.00949ZM47.4893 8.51209H47.5929C47.7107 8.51209 47.8112 8.46929 47.8112 8.35827C47.8112 8.27951 47.7541 8.20074 47.5929 8.20074C47.5464 8.20074 47.5141 8.20446 47.4893 8.20819V8.51209Z" fill="#3C3B3B"/>
</svg>
