<svg width="144" height="40" viewBox="0 0 144 40" fill="none" xmlns="http://www.w3.org/2000/svg">
<rect width="144" height="39.8535" fill="#F9F9F9"/>
<path d="M15.4721 5.02033C14.8216 5.10164 14.3134 5.26426 13.7239 5.54885C12.7685 6.03672 12.0367 6.76852 11.5489 7.72392C11.3049 8.21179 11.1829 8.51671 11.0813 9.0249C11 9.37047 11 9.899 11 20.0019C11 30.1048 11 30.6333 11.0813 30.9789C11.1829 31.4871 11.3049 31.792 11.5489 32.2799C12.0367 33.2353 12.7685 33.9671 13.7239 34.455C14.2118 34.6989 14.5167 34.8209 15.0249 34.9225C15.3705 35.0038 15.899 35.0038 26.0019 35.0038C36.1048 35.0038 36.6333 35.0038 36.9789 34.9225C37.4871 34.8209 37.792 34.6989 38.2799 34.455C39.2353 33.9671 39.9671 33.2353 40.455 32.2799C40.6989 31.792 40.8209 31.4871 40.9225 30.9789C41.0038 30.6333 41.0038 30.1048 41.0038 20.0019C41.0038 9.899 41.0038 9.37047 40.9225 9.0249C40.8209 8.51671 40.6989 8.21179 40.455 7.72392C39.7638 6.38229 38.5645 5.46754 37.0399 5.08131C36.735 5 36.1861 5 26.1645 5C20.3508 5 15.5534 5.02033 15.4721 5.02033ZM28.9901 11.6065C31.0229 11.9928 32.2222 12.9075 32.6694 14.4321C32.893 15.2045 32.9133 16.2819 32.7101 17.0137C32.6288 17.339 32.3645 17.8878 32.1815 18.1521C31.836 18.6399 31.2465 19.1278 30.6366 19.4327C30.4943 19.514 30.3724 19.575 30.3724 19.5953C30.3724 19.6157 30.474 19.6563 30.596 19.6767C30.7179 19.697 30.9619 19.7783 31.1448 19.8596C32.7304 20.4898 33.6451 22.0143 33.6451 24.1081C33.6451 25.3278 33.2589 26.4255 32.5474 27.1776C31.7343 28.0517 30.6163 28.5802 28.9698 28.8851C28.6039 28.9461 28.0753 28.9665 23.8675 28.9665L19.1514 28.9868V11.4846L23.9081 11.5049C27.994 11.5455 28.6852 11.5455 28.9901 11.6065ZM22.2209 16.4242V18.8432L25.0262 18.8229C27.4858 18.8026 27.8517 18.8026 28.055 18.7416C28.7258 18.5383 29.295 18.1114 29.5389 17.5829C29.7219 17.1967 29.7829 16.9324 29.7829 16.3632C29.7829 15.2859 29.4576 14.6557 28.7462 14.3101C28.1363 14.0255 28.1363 14.0255 25.0465 14.0052L22.2209 13.9849V16.4242ZM22.2209 23.7829V26.5271L25.2701 26.5068C28.2583 26.4865 28.3396 26.4865 28.6648 26.4052C29.1527 26.2629 29.4983 26.0799 29.8235 25.7343C30.352 25.2261 30.535 24.657 30.535 23.7625C30.535 22.8681 30.3114 22.2989 29.8032 21.7907C29.4576 21.4655 29.1324 21.3029 28.6039 21.1606C28.2583 21.0793 28.1566 21.0589 25.2294 21.0589L22.2209 21.0386V23.7829Z" fill="#3D3C3C"/>
<path d="M51.1069 11.5659C51.1679 11.5455 51.2289 11.5252 51.2899 11.5252C53.5666 11.5252 55.823 11.5252 58.0997 11.5659C58.8721 11.5862 59.5836 11.8505 60.2138 12.318C61.6571 13.375 61.7993 16.3632 59.8072 17.4406C59.7056 17.5016 59.6039 17.5422 59.4616 17.6235C59.8479 17.8065 60.2138 17.9285 60.5187 18.1317C61.718 18.9448 62.2059 20.754 61.6571 22.3396C61.1895 23.7219 60.0715 24.3114 58.7908 24.6163C58.364 24.7179 57.9167 24.7586 57.4899 24.7789C55.3758 24.7993 53.2414 24.7789 51.1069 24.7789C51.1069 20.3881 51.1069 15.977 51.1069 11.5659ZM53.3633 22.8478C54.9489 22.8478 56.4735 22.8884 57.998 22.8275C58.9535 22.7868 59.6446 21.7501 59.6039 20.7337C59.543 19.7173 58.9331 18.8635 57.998 18.8229C56.4735 18.7416 54.9692 18.7619 53.4446 18.7619C53.4243 18.7619 53.404 18.8026 53.3633 18.8229V22.8478ZM53.3836 17.034C54.7863 17.034 56.1482 17.095 57.5102 17.0137C58.5062 16.9527 59.0754 16.1599 59.0348 15.0419C58.9941 14.0662 58.4249 13.4767 57.4085 13.436C56.1279 13.3954 54.8472 13.4157 53.5463 13.4157C53.4853 13.4157 53.4446 13.436 53.3836 13.4563V17.034ZM123.636 15.2249H125.527V16.2616C125.73 16.099 125.994 15.916 126.238 15.7127C127.682 14.4524 131.117 14.5947 132.296 17.156C133.312 19.3514 133.272 21.5671 131.89 23.5999C131.137 24.7383 129.958 25.1448 128.637 25.0635C127.478 25.0025 126.462 24.6366 125.669 23.5389V28.3566H123.636C123.636 23.9658 123.636 19.5953 123.636 15.2249ZM125.547 20.0629C125.629 20.5507 125.669 21.0386 125.812 21.5061C126.096 22.5429 126.991 23.3153 127.926 23.3966C129.166 23.4779 130.06 23.0104 130.507 21.8924C131.076 20.4694 131.056 19.0262 130.223 17.7049C129.247 16.1396 126.889 16.2616 126.055 17.9081C125.71 18.5789 125.547 19.2904 125.547 20.0629ZM122.295 23.417C122.295 23.8032 122.315 24.2097 122.295 24.6163C122.295 24.7179 122.173 24.8806 122.092 24.8806C121.502 24.9212 120.913 25.0229 120.323 24.9619C119.815 24.9009 119.53 24.4537 119.368 23.9455C118.148 24.9619 116.745 25.1652 115.261 24.9822C114.021 24.8196 112.985 23.7829 112.903 22.6242C112.781 21.0386 113.371 20.0019 114.774 19.6157C115.749 19.3514 116.786 19.2498 117.782 19.0668C118.026 19.0262 118.27 18.9855 118.514 18.9245C118.981 18.8026 119.307 18.5383 119.327 18.0098C119.368 17.4609 119.144 17.034 118.656 16.8308C117.802 16.4852 116.908 16.4852 116.054 16.8917C115.668 17.0747 115.444 17.4406 115.241 18.0911H113.249C113.249 17.3186 113.513 16.6681 114.021 16.1193C114.692 15.3875 115.566 15.1029 116.501 15.0216C117.477 14.9199 118.453 14.92 119.408 15.2452C120.689 15.6924 121.299 16.5462 121.299 17.9285C121.299 19.3921 121.299 20.8557 121.299 22.3193C121.278 23.3356 121.278 23.3356 122.295 23.417ZM119.205 20.1239C118.575 20.2255 118.006 20.3271 117.436 20.4491C116.847 20.5711 116.237 20.693 115.668 20.8963C115.119 21.0996 114.916 21.6281 114.936 22.1973C114.956 22.7461 115.322 23.0511 115.79 23.2137C116.603 23.4983 117.416 23.4576 118.168 23.0917C118.717 22.8275 119.144 22.4006 119.185 21.7501C119.246 21.2012 119.205 20.6524 119.205 20.1239ZM67.9587 14.9403C71.0891 14.8996 72.9186 17.2373 72.7154 20.4084C72.6544 21.5061 72.3495 22.5429 71.638 23.417C70.8655 24.352 69.8898 24.8602 68.6905 24.9822C67.6944 25.1042 66.739 25.0229 65.8242 24.596C64.4623 23.9658 63.6695 22.8681 63.3443 21.3842C63.1207 20.3678 63.1207 19.3717 63.3849 18.3757C63.9541 16.2006 65.621 14.9606 67.9587 14.9403ZM65.2347 20.0222C65.316 20.4898 65.3567 20.9573 65.4787 21.4248C65.8039 22.5835 66.6983 23.3356 67.7147 23.3966C68.9751 23.4576 69.8491 22.9088 70.337 21.7298C70.8046 20.5507 70.8046 19.3717 70.2964 18.213C69.5442 16.5055 67.5318 16.0583 66.2308 17.339C65.4787 18.0301 65.2957 18.9855 65.2347 20.0222ZM78.7934 14.9403C81.6189 14.9403 83.5297 16.8714 83.5704 19.758C83.5907 20.9776 83.3874 22.1363 82.6963 23.1527C81.7002 24.6163 80.257 25.1245 78.5901 25.0432C77.9803 25.0229 77.3298 24.8806 76.7606 24.6366C75.419 24.1081 74.6058 23.0307 74.2603 21.6281C73.9554 20.3881 73.9757 19.1481 74.3822 17.9285C74.9717 16.0583 76.659 14.9403 78.7934 14.9403ZM81.497 19.758C81.4563 19.4937 81.4157 19.0058 81.2734 18.5383C80.9278 17.3593 80.013 16.6275 78.8747 16.5868C77.7973 16.5462 76.8216 17.1763 76.415 18.3147C75.9271 19.6563 75.9678 20.9776 76.6996 22.2176C77.4721 23.5186 79.2202 23.8032 80.3789 22.8275C81.253 22.0957 81.4563 21.0793 81.497 19.758ZM98.9179 17.8878C98.2674 17.8878 97.6576 17.8878 97.0274 17.8878C96.9461 17.8878 96.8241 17.8065 96.8038 17.7455C96.4582 16.7494 95.6248 16.6275 94.771 16.6275C94.4254 16.6275 94.0392 16.7088 93.714 16.8511C93.0025 17.156 92.9415 17.9691 93.592 18.3553C94.0392 18.6196 94.5881 18.7619 95.0963 18.9245C95.8281 19.1278 96.5802 19.2701 97.312 19.4734C99.1618 20.0425 99.8936 21.933 98.8569 23.4983C98.369 24.2504 97.6169 24.657 96.7631 24.8602C95.5028 25.1651 94.2425 25.1855 93.0228 24.7383C91.7015 24.2504 91.0104 23.2747 90.9087 21.8111H92.9212C93.4904 23.3356 95.1166 23.9252 96.6208 23.1527C96.9664 22.9697 97.2103 22.7258 97.2307 22.2989C97.251 21.8517 97.0884 21.4655 96.6818 21.3029C95.9703 21.0386 95.2385 20.8557 94.5067 20.6321C93.8969 20.4491 93.2871 20.3271 92.7179 20.0832C91.5999 19.636 91.112 18.8635 91.112 17.6642C91.112 16.6275 91.7015 15.7534 92.7586 15.3672C94.2018 14.8386 95.6858 14.7573 97.129 15.3468C98.1048 15.7331 98.6943 16.5055 98.9382 17.5422C98.9382 17.6235 98.9179 17.7252 98.9179 17.8878ZM88.0019 15.1842H89.872V16.7291H88.0425C88.0222 16.9121 88.0222 17.0544 88.0222 17.1763C88.0222 18.7416 88.0222 20.3068 88.0222 21.872C88.0222 22.0753 88.0425 22.2989 88.0628 22.5022C88.1035 22.9088 88.3271 23.1527 88.7337 23.1934C89.0996 23.2137 89.4858 23.1934 89.8923 23.1934V24.7383C89.0386 24.9619 88.1848 24.9415 87.3514 24.7586C86.3756 24.535 85.9894 23.8438 85.9691 22.5632C85.9487 20.7947 85.9691 19.0465 85.9691 17.278V16.7698H84.4242V15.2045H85.9487V12.3383H88.0425C88.0019 13.2734 88.0019 14.2085 88.0019 15.1842ZM105.402 24.8196C104.61 24.8196 103.837 24.8399 103.085 24.8196C102.353 24.7789 101.784 24.2911 101.621 23.5593C101.54 23.1324 101.479 22.7055 101.479 22.2786C101.459 20.6321 101.479 18.9652 101.479 17.3186V16.7901H99.9343V15.2452H101.459V12.3586H103.553V15.2045H105.402V16.7698H103.634C103.614 16.9121 103.593 17.0137 103.593 17.095C103.593 18.7822 103.593 20.4694 103.593 22.1566C103.593 23.0511 103.837 23.2543 104.691 23.2543C104.915 23.2543 105.159 23.2543 105.423 23.2543L105.402 24.8196ZM108.878 15.2249V16.8511C109.671 15.4688 110.789 14.737 112.436 14.9809V16.9934C111.663 16.8714 110.911 16.8511 110.24 17.339C109.366 17.9691 109.061 18.9245 109.041 19.9409C109 21.5265 109.041 23.1324 109.041 24.7586H106.988V15.2045C107.598 15.2249 108.208 15.2249 108.878 15.2249Z" fill="#3D3C3C"/>
</svg>
