<svg width="144" height="40" viewBox="0 0 144 40" fill="none" xmlns="http://www.w3.org/2000/svg">
<rect width="144" height="39.8535" fill="#F9F9F9"/>
<path opacity="0.981" fill-rule="evenodd" clip-rule="evenodd" d="M32 7C36.0451 7 40.0906 7 44.1357 7C44.1451 7.97045 44.1357 8.93885 44.1071 9.90512C41.0637 9.91944 38.02 9.92422 34.9767 9.91944C34.9767 11.9611 34.9767 14.0028 34.9767 16.0445C37.3142 16.0397 39.6515 16.0445 41.989 16.0588C42.0079 16.5338 42.0177 17.0108 42.0177 17.4899C42.0177 17.969 42.0079 18.4461 41.989 18.921C39.6515 18.9353 37.3142 18.9402 34.9767 18.9353C34.9815 22.5323 34.9767 26.1289 34.9624 29.7258C33.9898 29.735 33.0022 29.735 32 29.7258C32 22.1504 32 14.5753 32 7Z" fill="#3C3B3B"/>
<path opacity="0.98" fill-rule="evenodd" clip-rule="evenodd" d="M49.1158 7.8014C50.2097 7.77756 50.9204 8.28322 51.2482 9.31836C51.3838 10.3558 50.9782 11.0952 50.0317 11.5366C49.0345 11.8305 48.2474 11.5395 47.6704 10.6636C47.2397 9.74764 47.3876 8.94147 48.1141 8.24504C48.4226 8.01386 48.7566 7.86597 49.1158 7.8014Z" fill="#3C3B3B"/>
<path opacity="0.986" fill-rule="evenodd" clip-rule="evenodd" d="M61.3946 14.0124C63.1336 13.9587 64.6171 14.5406 65.8453 15.7583C65.8504 15.3316 65.8647 14.9071 65.8882 14.4846C66.8708 14.4703 67.8537 14.4655 68.8363 14.4703C68.8411 19.3169 68.8363 24.1637 68.822 29.0103C68.5475 31.9529 67.1021 34.0852 64.4857 35.4073C62.3895 36.3403 60.2812 36.3403 58.1603 35.4073C57.8609 35.2624 57.5747 35.0953 57.3016 34.9064C57.2922 34.8872 57.2825 34.8683 57.273 34.8491C57.7576 34.0039 58.249 33.1644 58.747 32.3304C60.0997 33.2446 61.5354 33.4212 63.0546 32.8599C64.6689 32.126 65.5991 30.881 65.8453 29.1247C65.8501 28.307 65.8645 27.4913 65.8882 26.6776C65.869 26.6584 65.8501 26.6584 65.831 26.6776C64.4102 28.0403 62.7117 28.603 60.7363 28.3663C58.6268 28.0197 57.0383 26.9177 55.9707 25.0604C55.0829 23.3546 54.7966 21.58 55.1121 19.7368C55.4512 17.9845 56.2956 16.5296 57.6451 15.3719C58.7522 14.5205 60.0021 14.0673 61.3946 14.0124ZM61.5663 16.9318C63.2733 16.8868 64.547 17.6215 65.3873 19.1357C65.8825 20.1764 65.997 21.264 65.7308 22.3986C65.3278 23.7916 64.4548 24.7599 63.1119 25.3037C61.4624 25.7605 60.0742 25.3358 58.9474 24.03C57.8961 22.5904 57.6958 21.0353 58.3463 19.3647C59.0064 17.9851 60.0797 17.1741 61.5663 16.9318Z" fill="#3C3B3B"/>
<path opacity="0.985" fill-rule="evenodd" clip-rule="evenodd" d="M79.7986 14.0124C81.5545 13.9789 82.9905 14.6372 84.1062 15.9873C84.2295 16.1822 84.3583 16.373 84.4926 16.5597C85.8741 14.612 87.7537 13.7868 90.1311 14.0839C92.0888 14.5147 93.4197 15.6739 94.1238 17.5615C94.2987 18.0543 94.4226 18.56 94.4959 19.0785C94.5429 22.6273 94.5526 26.1764 94.5245 29.7258C93.5525 29.7261 92.5745 29.7261 91.5908 29.7258C91.5957 26.4821 91.5908 23.2381 91.5765 19.9944C91.4514 18.4099 90.6262 17.4033 89.1007 16.9748C87.7277 16.7831 86.6544 17.2553 85.8807 18.3915C85.6409 18.7777 85.4883 19.1975 85.4228 19.6509C85.4085 23.0091 85.4036 26.3676 85.4085 29.7258C84.4161 29.7258 83.4241 29.7258 82.4318 29.7258C82.4366 26.4057 82.4318 23.0855 82.4175 19.7654C82.1788 18.2675 81.325 17.3373 79.8558 16.9748C78.4903 16.8106 77.4264 17.3115 76.6645 18.4774C76.4292 18.8936 76.2861 19.3421 76.2351 19.8226C76.2208 23.1236 76.216 26.4248 76.2208 29.7258C75.2382 29.7258 74.2554 29.7258 73.2728 29.7258C73.2693 24.6471 73.2599 19.5762 73.2441 14.5133C74.2322 14.4705 75.2245 14.4562 76.2208 14.4703C76.216 14.9188 76.2208 15.3673 76.2351 15.8156C77.1465 14.6615 78.3343 14.0604 79.7986 14.0124Z" fill="#3C3B3B"/>
<path opacity="0.99" fill-rule="evenodd" clip-rule="evenodd" d="M104.671 14.0123C106.757 13.9589 108.541 14.6649 110.023 16.1304C110.047 15.5771 110.057 15.0333 110.052 14.4989C111.035 14.4703 112.017 14.4608 113 14.4703C113 19.5556 113 24.6405 113 29.7258C112.017 29.7352 111.035 29.7258 110.052 29.6972C110.055 29.1536 110.046 28.6098 110.023 28.0657C108.912 29.1748 107.585 29.8572 106.045 30.1122C102.883 30.4576 100.436 29.2985 98.7034 26.6346C97.5041 24.4834 97.1798 22.2509 97.7302 19.9371C98.2245 17.9597 99.2978 16.3807 100.95 15.2002C102.087 14.4777 103.328 14.0817 104.671 14.0123ZM104.843 16.9318C106.549 16.869 107.927 17.5082 108.979 18.8495C110.157 20.5579 110.357 22.3897 109.58 24.3449C108.79 25.9943 107.497 26.9626 105.701 27.25C104.004 27.3462 102.626 26.7308 101.566 25.4039C100.554 23.9857 100.239 22.4209 100.621 20.7099C101.073 19.0876 102.07 17.9284 103.612 17.2323C103.791 17.1709 103.972 17.1136 104.156 17.0606C104.398 17.031 104.627 16.988 104.843 16.9318Z" fill="#3C3B3B"/>
<path opacity="0.985" fill-rule="evenodd" clip-rule="evenodd" d="M47.8567 14.4703C48.849 14.4703 49.841 14.4703 50.8334 14.4703C50.8382 19.5459 50.8334 24.6217 50.8191 29.6972C49.8336 29.7258 48.8461 29.7353 47.8567 29.7258C47.8567 24.6406 47.8567 19.5556 47.8567 14.4703Z" fill="#3C3B3B"/>
</svg>
