<svg width="144" height="40" viewBox="0 0 144 40" fill="none" xmlns="http://www.w3.org/2000/svg">
<rect width="144" height="39.8535" fill="#F9F9F9"/>
<path fill-rule="evenodd" clip-rule="evenodd" d="M26.6755 8.00377C27.4058 8.00377 28.0815 8.39904 28.4241 9.04089C28.7516 9.65639 28.7384 10.3811 28.3883 10.9834L28.377 11.0041L25.3052 16.1426C24.957 16.7243 24.3302 17.0857 23.6601 17.0932H23.6375H20.129L21.5877 20.4304L21.5934 20.4398L21.6028 20.4549C21.9454 21.076 21.9378 21.8139 21.5821 22.4237L21.5708 22.4444L18.4989 27.583C18.1507 28.1646 17.5239 28.526 16.8539 28.5335H16.8313H12.5265L9.43212 31.7974L9.42647 31.803C9.13472 32.0985 8.74133 32.2642 8.331 32.2642C8.22935 32.2642 8.12583 32.2529 8.02419 32.2322C7.52351 32.1305 7.10753 31.7861 6.90801 31.3136L6.90236 31.3005L5.27421 27.5623L5.2648 27.5472L5.25539 27.5322C5.25539 27.5322 5.25162 27.5265 5.25162 27.5246C4.90905 26.9035 4.91658 26.1657 5.27233 25.5558L5.28362 25.5351L8.26323 20.5509L6.06852 15.5253L6.10805 15.5046V15.5008C6.01394 15.0378 6.08923 14.5559 6.32827 14.1343L6.34145 14.1117L6.35274 14.091L9.42459 8.95242C9.7728 8.3708 10.3996 8.00941 11.0697 8H26.6773L26.6755 8.00377ZM10.5464 28.4959H7.28258L8.24065 30.7132V30.7188C8.25947 30.7584 8.28394 30.781 8.32347 30.7885C8.35735 30.796 8.38558 30.7885 8.41193 30.764L8.4157 30.7602L10.5464 28.4959ZM19.8749 20.8727H10.01C9.99867 20.8727 9.98738 20.8727 9.97797 20.8727H9.97421L12.679 27.0597H16.8294C17.0007 27.0597 17.1644 26.9675 17.2585 26.8226L17.2661 26.8113L20.3417 21.6689C20.4339 21.5165 20.4433 21.3377 20.3718 21.1777C20.2871 20.9932 20.0932 20.8727 19.8768 20.8727H19.8749ZM8.98414 22.1433L6.54285 26.2579C6.44497 26.4216 6.43933 26.6136 6.52779 26.783L6.53721 26.8L6.54285 26.8075L6.55226 26.8244L6.57109 26.8527L6.59367 26.8809L6.61438 26.9054L6.61814 26.9091L6.63132 26.9242L6.64449 26.9355C6.72167 27.0051 6.81578 27.0484 6.92119 27.0578H6.94377L6.95695 27.0597H6.97389H11.1167L8.98414 22.1414V22.1433ZM8.34229 17.1026L9.41518 19.5627L9.43588 19.5552C9.62034 19.4931 9.81421 19.4592 10.01 19.4573H10.0401H19.6038L18.578 17.1045H8.34417L8.34229 17.1026ZM26.6472 9.43804H16.7466L19.4532 15.6269H23.6017C23.773 15.6269 23.9368 15.5347 24.0309 15.3879L24.0384 15.3766L27.114 10.2342C27.2063 10.0818 27.2157 9.90296 27.1441 9.74297C27.0613 9.56227 26.8731 9.44181 26.6623 9.43616H26.6491L26.6472 9.43804ZM15.2313 9.43804H11.1054C10.936 9.43804 10.7723 9.52839 10.6782 9.67521L10.6706 9.6865L7.60256 14.8288C7.51033 14.9832 7.50092 15.1601 7.57433 15.3201C7.65527 15.5008 7.84349 15.6213 8.05242 15.625H8.0656H17.9286L15.2295 9.43616L15.2313 9.43804Z" fill="#3C3B3B"/>
<path fill-rule="evenodd" clip-rule="evenodd" d="M43.0247 15.7098L43.036 12.5589H34.3813V26.881H37.6395V21.6238H41.9047L41.916 18.4729H37.6395V15.7116H43.0247V15.7098ZM44.8693 26.881H47.9242V11.9453H44.8693V26.881ZM56.7426 16.6509V22.2356C56.7426 23.6887 55.9689 24.3437 54.849 24.3437C53.8721 24.3437 53.0778 23.7508 53.0778 22.4821V16.6509H50.0229V22.932C50.0229 25.6933 51.7734 27.1671 53.8307 27.1671C55.1746 27.1671 56.1929 26.6758 56.7426 25.9191V26.881H59.7975V16.6509H56.7426ZM68.0041 19.5985V16.6528H65.9073V13.788L62.8524 14.7084V16.6528H61.2223V19.5985H62.8524V23.22C62.8524 26.0848 64.0137 27.2913 68.0041 26.8828V24.1009C66.6602 24.1818 65.9073 24.1009 65.9073 23.2219V19.6004H68.0041V19.5985ZM75.9039 19.5985V16.6528H73.8071V13.788L70.7522 14.7084V16.6528H69.1222V19.5985H70.7522V23.22C70.7522 26.0848 71.9135 27.2913 75.9039 26.8828V24.1009C74.56 24.1818 73.8071 24.1009 73.8071 23.2219V19.6004H75.9039V19.5985ZM80.5682 22.9941H87.7979C87.8788 22.6045 87.9203 22.196 87.9203 21.7669C87.9203 18.6781 85.7218 16.3648 82.7478 16.3648C79.531 16.3648 77.3307 18.7176 77.3307 21.7669C77.3307 24.8161 79.4896 27.1689 82.9718 27.1689C84.9068 27.1689 86.4126 26.4537 87.412 25.0608L84.9689 23.6491C84.5623 24.099 83.8489 24.4265 83.0132 24.4265C81.8933 24.4265 80.9559 24.0576 80.57 22.9941H80.5682ZM80.5079 20.7015C80.7922 19.6587 81.5676 19.0847 82.7271 19.0847C83.6438 19.0847 84.5604 19.5138 84.8861 20.7015H80.5079ZM92.705 18.4729V16.6528H89.6501V26.8828H92.705V22.26C92.705 20.2347 94.4969 19.7227 95.7598 19.9279V16.4495C94.4762 16.4495 93.1134 17.1045 92.705 18.4748V18.4729ZM105.93 15.7098L105.941 12.5589H97.2864V26.881H100.545V21.6238H104.81L104.821 18.4729H100.545V15.7116H105.93V15.7098ZM107.774 26.881H110.829V11.9453H107.774V26.881ZM117.957 27.1671C120.95 27.1671 123.354 24.8142 123.354 21.765C123.354 18.7157 120.95 16.3629 117.957 16.3629C114.965 16.3629 112.561 18.7157 112.561 21.765C112.561 24.8142 114.965 27.1671 117.957 27.1671ZM117.957 24.1799C116.634 24.1799 115.616 23.2181 115.616 21.765C115.616 20.3119 116.634 19.35 117.957 19.35C119.281 19.35 120.299 20.3119 120.299 21.765C120.299 23.2181 119.281 24.1799 117.957 24.1799ZM136.285 16.6509L134.819 22.1339L133.23 16.6509H130.378L128.79 22.1339L127.323 16.6509H124.065L127.323 26.881H130.175L131.805 21.4187L133.435 26.881H136.287L139.545 16.6509H136.287H136.285Z" fill="#3C3B3B"/>
</svg>
