<svg width="144" height="40" viewBox="0 0 144 40" fill="none" xmlns="http://www.w3.org/2000/svg">
<g clip-path="url(#clip0_385_198)">
<path d="M144 0H0V39.8535H144V0Z" fill="#F9F9F9"/>
<mask id="mask0_385_198" style="mask-type:luminance" maskUnits="userSpaceOnUse" x="15" y="7" width="114" height="30">
<path d="M129 7H15V36.451H129V7Z" fill="white"/>
</mask>
<g mask="url(#mask0_385_198)">
<path d="M44.8191 29.3337V7.06137H48.255V15.8353C49.3595 14.2401 50.9547 13.3811 53.1635 13.3811C55.0042 13.3811 56.4768 13.9333 57.4585 15.0377C58.5015 16.1421 58.9924 17.676 58.9924 19.6394V29.3337H55.5564V20.1303C55.5564 17.6147 54.452 16.3262 52.1818 16.3262C51.0774 16.3262 50.0957 16.6943 49.4208 17.3692C48.6845 18.0441 48.3164 19.0258 48.3164 20.253V29.3337H44.8191Z" fill="#3C3B3B"/>
<path d="M75.4358 27.4316C73.9019 28.9655 71.9385 29.7018 69.6069 29.7018C67.2754 29.7018 65.312 28.9042 63.7781 27.3703C62.2442 25.8364 61.4465 23.873 61.4465 21.4801C61.4465 19.0872 62.2442 17.1238 63.7781 15.6512C65.312 14.1173 67.2754 13.381 69.6069 13.381C71.9385 13.381 73.9019 14.1173 75.4358 15.6512C76.9697 17.1851 77.7673 19.1485 77.7673 21.4801C77.706 23.9343 76.9697 25.8364 75.4358 27.4316ZM66.2937 25.4682C67.0913 26.4499 68.1957 26.9408 69.6069 26.9408C70.9568 26.9408 72.0612 26.4499 72.9202 25.4682C73.7178 24.4865 74.1473 23.1981 74.1473 21.5414C74.1473 19.9462 73.7178 18.5963 72.9202 17.676C72.0612 16.6943 70.9568 16.2034 69.6069 16.2034C68.2571 16.2034 67.1527 16.6943 66.2937 17.6146C65.496 18.5963 65.0666 19.8848 65.0666 21.5414C65.0666 23.1981 65.496 24.4865 66.2937 25.4682Z" fill="#3C3B3B"/>
<path d="M85.7439 29.7018C82.5533 29.7018 80.9581 27.9839 80.9581 24.5479V16.6943H78.5652V13.7492H81.0808L81.8784 9.14749H84.4554V13.7492H90.6524V16.6943H84.4554V24.4866C84.4554 25.8978 85.0076 26.634 86.0507 26.634C87.0324 26.634 87.8913 25.7137 88.689 23.9344L91.3887 25.2842C90.0388 28.2293 88.1981 29.7018 85.7439 29.7018Z" fill="#3C3B3B"/>
<path d="M92.4931 36.451C90.9592 36.451 89.6707 36.0215 88.689 35.1625L89.9774 32.4629C90.591 33.1991 91.2659 33.5673 92.0022 33.5673C92.9839 33.5673 93.4748 32.9537 93.4748 31.7266V13.7492H96.9107V31.7266C96.9107 33.3832 96.4812 34.6103 95.6836 35.3466C94.8246 36.0829 93.7815 36.451 92.4931 36.451ZM95.1927 11.1109C94.6405 11.1109 94.0883 10.9268 93.6588 10.5587C93.4748 10.3746 93.2907 10.1292 93.168 9.88375C93.0453 9.63832 92.9839 9.33154 93.0453 9.08611C93.0453 8.77933 93.1066 8.53391 93.168 8.28848C93.2907 8.04306 93.4134 7.79763 93.6588 7.61356C94.0883 7.24543 94.6405 7 95.1927 7C95.7449 7 96.2971 7.18407 96.7266 7.61356C96.9107 7.79763 97.0948 8.04306 97.2175 8.28848C97.3402 8.53391 97.4016 8.84069 97.3402 9.08611C97.3402 9.33154 97.2788 9.63832 97.1561 9.88375C97.0334 10.1292 96.9107 10.3746 96.6653 10.5587C96.4812 10.7427 96.2358 10.9268 95.9904 10.9882C95.7449 11.1109 95.4382 11.1722 95.1927 11.1109Z" fill="#3C3B3B"/>
<path d="M105.501 29.7018C103.721 29.7018 102.31 29.2723 101.206 28.352C100.101 27.493 99.5491 26.2659 99.5491 24.7933C99.5491 23.4435 100.101 22.2777 101.267 21.296C102.433 20.3143 103.844 19.8848 105.562 19.8848C107.341 19.8848 108.814 20.437 110.041 21.6028V19.7007C110.041 18.5963 109.734 17.7373 109.182 17.1238C108.63 16.5102 107.832 16.2034 106.789 16.2034C104.642 16.2034 103.353 17.3078 102.862 19.4553L99.6718 18.7804C100.101 17.1238 100.96 15.7739 102.187 14.8536C103.415 13.9332 105.01 13.381 106.912 13.381C108.937 13.381 110.593 13.9332 111.759 14.9763C112.925 16.0807 113.538 17.6146 113.538 19.7007V29.2723H110.164V27.3089C109.059 28.9042 107.525 29.7018 105.501 29.7018ZM106.176 27.1249C107.709 27.1249 108.998 26.3272 110.102 24.7933V24.3025C109.059 23.014 107.709 22.4004 106.176 22.4004C105.255 22.4004 104.58 22.6458 103.967 23.0753C103.721 23.2594 103.476 23.5048 103.353 23.8116C103.23 24.1184 103.108 24.4252 103.169 24.732C103.169 25.0387 103.23 25.4069 103.353 25.7137C103.476 26.0204 103.721 26.2659 103.967 26.4499C104.519 26.9408 105.255 27.1249 106.176 27.1249Z" fill="#3C3B3B"/>
<path d="M116.913 29.3337V13.7492H120.287V16.4489C121.146 14.4855 122.619 13.5038 124.705 13.5038C125.932 13.5038 126.975 13.9333 127.773 14.7309C128.571 15.5285 129 16.633 129 17.9828C129 18.7804 128.877 19.6394 128.571 20.3757L125.38 20.0689C125.441 19.6394 125.503 19.2099 125.503 18.7804C125.503 17.1852 124.828 16.3875 123.539 16.3875C122.619 16.3875 121.883 16.8784 121.269 17.7987C120.656 18.7804 120.349 20.0076 120.349 21.5415V29.2724H116.913V29.3337Z" fill="#3C3B3B"/>
<path d="M23.2217 16.1421C25.7987 14.7309 29.3574 12.7675 29.3574 7H25.0624C25.0624 10.1905 23.5285 11.0495 21.1356 12.3994C18.5587 13.8719 15 15.8353 15 21.5414H19.2949C19.2949 18.3509 20.8288 17.4306 23.2217 16.1421Z" fill="#3C3B3B"/>
<path d="M30.5844 14.8536C30.5844 18.0441 29.0505 18.9031 26.6576 20.253C24.0806 21.6642 20.522 23.6276 20.522 29.395H24.8169C24.8169 26.2045 26.3508 25.3455 28.7437 23.9957C31.3207 22.5845 34.8793 20.6211 34.8793 14.8536H30.5844Z" fill="#3C3B3B"/>
</g>
</g>
<defs>
<clipPath id="clip0_385_198">
<rect width="144" height="40" fill="white"/>
</clipPath>
</defs>
</svg>
