<svg width="144" height="40" viewBox="0 0 144 40" fill="none" xmlns="http://www.w3.org/2000/svg">
<rect width="144" height="39.8535" fill="#F9F9F9"/>
<path d="M72.5637 9.50977H75.7356V25.1866C75.7356 29.3203 73.8485 32.2061 69.4721 32.2061C67.8259 32.2061 66.5411 31.9332 65.6577 31.6211V28.6184C66.6214 29.0084 67.7857 29.2034 68.9501 29.2034C71.6402 29.2034 72.5637 27.6435 72.5637 25.3816V9.50977Z" fill="#3D3C3C"/>
<path d="M81.5577 8.30084C82.8023 8.30084 83.6857 9.04179 83.6857 10.3677C83.6857 11.6546 82.8023 12.4346 81.5577 12.4346C80.3129 12.4346 79.4297 11.6936 79.4297 10.3677C79.4297 9.08079 80.3129 8.30084 81.5577 8.30084ZM79.9918 14.8914H83.0433V32.0502H79.9918V14.8914Z" fill="#3D3C3C"/>
<path d="M90.5914 32.0502H87.6201V14.8914H90.5914V17.8942C91.6352 15.8663 93.4019 14.4234 96.8549 14.6184V17.5042C92.9603 17.1142 90.5914 18.2451 90.5914 21.9108V32.0502Z" fill="#3D3C3C"/>
<path d="M111.109 28.9694C109.984 31.2313 107.856 32.4011 105.126 32.4011C100.428 32.4011 98.0596 28.5405 98.0596 23.4708C98.0596 18.6351 100.549 14.5405 105.488 14.5405C108.057 14.5405 110.065 15.6713 111.109 17.8942V14.8914H114.16V32.0502H111.109V28.9694ZM105.929 29.6713C108.659 29.6713 111.068 27.9945 111.068 24.1727V22.8079C111.068 18.9861 108.86 17.3092 106.25 17.3092C102.837 17.3092 101.071 19.4931 101.071 23.4708C101.111 27.6045 102.797 29.6713 105.929 29.6713Z" fill="#3D3C3C"/>
<path d="M56.6236 6H42.7314C42.7314 9.35376 45.542 12.0836 48.9949 12.0836H51.5646V14.4624C51.5646 17.8161 54.3752 20.546 57.8282 20.546V7.16992C57.8282 6.50697 57.3062 6 56.6236 6Z" fill="#3D3C3C"/>
<path d="M49.7584 12.7074H35.8662C35.8662 16.0612 38.6768 18.7909 42.1298 18.7909H44.6994V21.2088C44.6994 24.5625 47.51 27.2924 50.963 27.2924V13.8773C50.963 13.2534 50.441 12.7074 49.7584 12.7074Z" fill="#3D3C3C"/>
<path d="M42.8923 19.454H29C29 22.8078 31.8106 25.5375 35.2635 25.5375H37.8332V27.9164C37.8332 31.2702 40.6437 33.9999 44.0967 33.9999V20.6239C44.0967 19.961 43.5347 19.454 42.8923 19.454Z" fill="#3D3C3C"/>
</svg>
