<svg width="144" height="40" viewBox="0 0 144 40" fill="none" xmlns="http://www.w3.org/2000/svg">
<rect width="144" height="39.8535" fill="#F9F9F9"/>
<path fill-rule="evenodd" clip-rule="evenodd" d="M11.1826 28.4438C8.27245 25.5592 8.27249 20.8824 11.1826 17.9979L19.0867 10.1634C21.5469 7.72498 25.2991 7.34785 28.1588 9.03206C29.0434 9.55299 29.0357 10.748 28.3081 11.4692C27.5806 12.1903 26.393 12.1282 25.4054 11.8419C24.1409 11.4753 22.7188 11.7863 21.7214 12.7749L13.8173 20.6094C12.3622 22.0517 12.3622 24.39 13.8173 25.8323C15.2723 27.2746 17.6315 27.2746 19.0867 25.8324L34.8947 10.1635C37.8049 7.27898 42.5231 7.27897 45.4333 10.1635L53.3376 17.9979C56.2478 20.8824 56.2478 25.5593 53.3376 28.4438C50.4273 31.3283 45.709 31.3283 42.7989 28.4438L40.1641 25.8323L36.8708 29.0966C34.4107 31.5351 30.6585 31.9122 27.7987 30.228C26.9141 29.7071 26.9219 28.512 27.6494 27.7909C28.377 27.0698 29.5646 27.1318 30.5521 27.4181C31.8167 27.7847 33.2388 27.4738 34.2361 26.4852L37.6236 23.1275C39.0267 21.7368 41.3016 21.7368 42.7047 23.1275L45.4336 25.8323C46.8886 27.2746 49.2477 27.2746 50.703 25.8323C52.1579 24.39 52.1579 22.0517 50.703 20.6094L42.7987 12.775C41.3436 11.3327 38.9845 11.3327 37.5294 12.775L21.7214 28.4439C18.8111 31.3284 14.0927 31.3284 11.1826 28.4438Z" fill="#3C3B3B"/>
<path d="M85.2848 12.1867C83.4534 12.1867 82.0663 12.8422 81.1507 14.1532C80.3463 12.8422 79.0697 12.1867 77.3775 12.1867C75.6295 12.1867 74.3533 12.7876 73.521 14.0167V12.5691H69.9417V26.2256H73.521V18.5506C73.521 16.5568 74.5475 15.4642 76.1288 15.4642C77.5993 15.4642 78.4595 16.4202 78.4595 18.059V26.2256H82.0384V18.5506C82.0384 16.5568 82.982 15.4642 84.6188 15.4642C86.0892 15.4642 86.9494 16.4202 86.9494 18.059V26.2256H90.5284V17.8132C90.5284 14.399 88.4753 12.1867 85.2848 12.1867Z" fill="#3C3B3B"/>
<path d="M103.833 14.1806C102.751 12.8422 101.253 12.1867 99.3108 12.1867C97.4519 12.1867 95.8706 12.8968 94.539 14.2898C93.2349 15.6828 92.5688 17.3762 92.5688 19.3973C92.5688 21.4185 93.2349 23.1392 94.539 24.5322C95.8706 25.9251 97.4519 26.6079 99.3108 26.6079C101.253 26.6079 102.751 25.9524 103.833 24.6141V26.2256H107.412V12.5691H103.833V14.1806ZM97.2302 22.1833C96.5087 21.4458 96.1482 20.5171 96.1482 19.3973C96.1482 18.2775 96.5087 17.3489 97.2302 16.6387C97.9512 15.9013 98.8669 15.5462 99.9768 15.5462C101.087 15.5462 102.002 15.9013 102.723 16.6387C103.473 17.3489 103.833 18.2775 103.833 19.3973C103.833 20.5171 103.473 21.4458 102.723 22.1833C102.002 22.8934 101.087 23.2485 99.9768 23.2485C98.8669 23.2485 97.9512 22.8934 97.2302 22.1833Z" fill="#3C3B3B"/>
<path d="M120.619 14.918V12.5691H110.214V15.874H115.791L109.937 23.8767V26.2255H120.896V22.9207H114.737L120.619 14.918Z" fill="#3C3B3B"/>
<path d="M135.861 20.8449C135.944 20.326 136 19.8616 136 19.3973C136 17.3489 135.334 15.6554 134.002 14.2625C132.698 12.8695 131.006 12.1867 128.98 12.1867C126.844 12.1867 125.068 12.8695 123.709 14.2625C122.349 15.6281 121.656 17.3489 121.656 19.3973C121.656 21.4731 122.349 23.1938 123.737 24.5595C125.124 25.9251 126.955 26.6079 129.258 26.6079C131.922 26.6079 133.947 25.6247 135.306 23.6855L132.421 22.0467C131.727 22.948 130.673 23.4123 129.313 23.4123C127.177 23.4123 125.873 22.5656 125.401 20.8449H135.861ZM125.346 18.1136C125.762 16.3656 127.066 15.355 128.98 15.355C130.617 15.355 132.005 16.2563 132.421 18.1136H125.346Z" fill="#3C3B3B"/>
</svg>
