<svg width="144" height="40" viewBox="0 0 144 40" fill="none" xmlns="http://www.w3.org/2000/svg">
<rect width="144" height="39.8535" fill="#F9F9F9"/>
<path fill-rule="evenodd" clip-rule="evenodd" d="M66.9928 6.77452C65.9171 7.80721 65.9171 9.52837 66.9928 10.6041C68.0685 11.6798 69.8327 11.6798 70.8654 10.6041C71.9411 9.57139 71.9411 7.80721 70.8654 6.77452C69.8327 5.74183 68.0685 5.74183 66.9928 6.77452ZM88.3351 13.9173L85.8394 14.3046C81.1063 15.3803 78.0082 16.9293 78.0082 22.0928V32.4627L82.3111 33.3233V22.7812C82.3111 20.3716 83.688 19.2529 85.8394 18.8656L88.3351 18.3923V13.9173ZM55.4611 32.5488L59.7639 33.4094V21.6625C59.7639 16.0257 55.375 14.0034 52.32 14.0034C50.2546 14.0034 48.6625 14.5197 47.1995 15.9397C45.6935 14.5197 43.8863 13.9603 42.4233 13.9603C40.3149 13.9603 38.5077 14.8639 37.3029 16.3269V14.3476L33 15.2082V32.5488L37.3029 33.4094V21.4904C37.3029 19.5971 38.6798 18.2632 40.7882 18.2632C42.8536 18.2632 44.2305 19.5971 44.2305 21.4904V32.5488L48.5334 33.4094V21.4904C48.5334 19.5971 49.9103 18.2632 51.9757 18.2632C54.0411 18.2632 55.418 19.5971 55.418 21.4904V32.5488H55.4611ZM111.312 23.7279C111.312 29.1495 106.881 33.5385 101.459 33.5385C95.9942 33.5385 91.5623 29.1495 91.5623 23.7279C91.5623 18.3493 95.9942 13.9603 101.459 13.9603C106.881 13.9603 111.312 18.3493 111.312 23.7279ZM101.459 29.4507C98.3178 29.4507 95.7361 26.912 95.7361 23.7279C95.7361 20.5868 98.3178 18.0481 101.459 18.0481C104.6 18.0481 107.139 20.5868 107.139 23.7279C107.182 26.912 104.643 29.4507 101.459 29.4507ZM71.0805 33.5385L66.7776 32.5488V15.0791L71.0805 14.2185V33.5385Z" fill="#3C3B3B"/>
</svg>
