<svg width="144" height="40" viewBox="0 0 144 40" fill="none" xmlns="http://www.w3.org/2000/svg">
<rect width="144" height="39.8535" fill="#F9F9F9"/>
<path opacity="0.996" fill-rule="evenodd" clip-rule="evenodd" d="M88.1965 7C89.4628 7 90.7286 7 91.9949 7C91.9949 13.5914 91.9949 20.1828 91.9949 26.7742C90.7286 26.7742 89.4628 26.7742 88.1965 26.7742C88.2059 26.2711 88.1965 25.7684 88.1685 25.266C87.7284 25.9846 87.105 26.4781 86.2972 26.7463C83.6892 27.456 81.5012 26.795 79.7338 24.7633C78.3602 22.7631 77.9876 20.5846 78.6166 18.2277C79.5416 15.3848 81.4967 13.858 84.4818 13.6473C85.6319 13.6583 86.6653 14.0027 87.582 14.6807C87.8105 14.8876 88.006 15.1203 88.1685 15.3789C88.1965 12.586 88.2059 9.79303 88.1965 7ZM84.6215 17.334C86.4548 17.1677 87.5999 17.9684 88.0568 19.7359C88.259 21.2959 87.6725 22.441 86.2972 23.1713C84.7918 23.6626 83.5908 23.2623 82.6943 21.9703C82.1212 20.8432 82.1402 19.726 82.7502 18.6187C83.2166 17.9564 83.84 17.5281 84.6215 17.334Z" fill="#3C3B3B"/>
<path opacity="0.996" fill-rule="evenodd" clip-rule="evenodd" d="M1 25.2101C1 24.8377 1 24.4654 1 24.093C1.09989 23.7482 1.23954 23.413 1.41895 23.0875C3.27625 20.2109 5.1196 17.3248 6.94902 14.4293C8.11782 13.1603 9.46777 12.9276 10.9988 13.731C12.3804 14.8106 12.6877 16.142 11.9205 17.725C10.119 20.5271 8.33154 23.3387 6.558 26.1597C5.42861 27.65 4.02282 27.9758 2.34062 27.1373C1.65158 26.6619 1.20471 26.0195 1 25.2101Z" fill="#3C3B3B"/>
<path opacity="0.996" fill-rule="evenodd" clip-rule="evenodd" d="M18.1491 13.2563C19.9458 13.202 21.0537 14.0399 21.4727 15.7699C21.5393 16.2867 21.4835 16.7894 21.3051 17.2781C19.3535 20.4026 17.3798 23.5121 15.384 26.6066C13.9622 27.8874 12.5006 27.934 10.9991 26.7463C10.121 25.7628 9.92545 24.655 10.4125 23.4227C12.3304 20.4063 14.2482 17.3899 16.1661 14.3734C16.6969 13.7592 17.3579 13.3867 18.1491 13.2563Z" fill="#3C3B3B"/>
<path opacity="0.994" fill-rule="evenodd" clip-rule="evenodd" d="M44.9611 13.6472C47.7373 13.5867 49.4223 14.9087 50.0164 17.6132C50.1139 18.1675 50.1697 18.7261 50.184 19.289C50.2119 21.7839 50.2212 24.279 50.2119 26.7741C48.9457 26.7741 47.6796 26.7741 46.4134 26.7741C46.4228 24.4466 46.4134 22.1191 46.3855 19.7917C46.2618 17.9904 45.3215 17.2363 43.5646 17.5294C42.8417 17.8435 42.4042 18.3928 42.2519 19.1773C42.1705 21.7081 42.1426 24.2404 42.1681 26.7741C40.902 26.7741 39.6359 26.7741 38.3697 26.7741C38.3956 24.2588 38.3676 21.7451 38.2859 19.2331C37.9167 17.7649 36.9951 17.197 35.5209 17.5294C34.7874 17.813 34.3498 18.3437 34.2082 19.1214C34.1261 21.6704 34.0982 24.2214 34.1244 26.7741C32.8396 26.7741 31.5549 26.7741 30.2701 26.7741C30.2608 22.5102 30.2701 18.2463 30.298 13.9823C31.5693 13.9268 32.8448 13.9082 34.1244 13.9265C34.1151 14.504 34.1244 15.0812 34.1523 15.6581C34.8939 14.3514 36.0204 13.6997 37.5318 13.703C38.9215 13.66 40.0853 14.1441 41.023 15.1554C41.186 15.3881 41.3349 15.6301 41.4699 15.8816C42.282 14.5776 43.4457 13.8329 44.9611 13.6472Z" fill="#3C3B3B"/>
<path opacity="0.995" fill-rule="evenodd" clip-rule="evenodd" d="M57.2504 13.6472C59.6256 13.5716 61.5527 14.4467 63.0319 16.2726C64.406 18.4168 64.6479 20.6884 63.758 23.0874C62.6705 25.3876 60.855 26.6816 58.3118 26.9697C55.8397 27.1621 53.8381 26.2963 52.3069 24.3722C50.9927 22.3189 50.7227 20.131 51.4969 17.8087C52.5798 15.2743 54.4976 13.8872 57.2504 13.6472ZM57.1946 17.4456C58.9078 17.3373 59.997 18.1008 60.4623 19.7359C60.6891 21.2285 60.1395 22.3177 58.8145 23.0036C57.4147 23.4894 56.2507 23.1636 55.3233 22.0261C54.5031 20.5041 54.7173 19.1542 55.9657 17.9763C56.3475 17.7199 56.7571 17.5429 57.1946 17.4456Z" fill="#3C3B3B"/>
<path opacity="0.992" fill-rule="evenodd" clip-rule="evenodd" d="M72.5003 13.6472C75.5206 13.6788 77.15 15.2056 77.388 18.2277C77.4159 21.0765 77.4254 23.9253 77.4159 26.7742C76.1496 26.7742 74.8838 26.7742 73.6175 26.7742C73.6432 24.2404 73.6152 21.7081 73.5337 19.1773C73.2689 18.056 72.5612 17.4602 71.411 17.3898C69.8486 17.5191 69.085 18.3756 69.1208 19.9593C69.0929 22.2308 69.0834 24.5025 69.0929 26.7742C67.8265 26.7742 66.5608 26.7742 65.2944 26.7742C65.2944 22.4916 65.2944 18.2091 65.2944 13.9265C66.5608 13.9265 67.8265 13.9265 69.0929 13.9265C69.0834 14.5226 69.0929 15.1185 69.1208 15.714C69.9218 14.4898 71.0479 13.8008 72.5003 13.6472Z" fill="#3C3B3B"/>
<path opacity="0.996" fill-rule="evenodd" clip-rule="evenodd" d="M99.2006 13.6472C100.407 13.6304 101.505 13.9562 102.496 14.6248C102.731 14.8408 102.945 15.0735 103.139 15.323C103.167 14.8579 103.176 14.3924 103.167 13.9265C104.428 13.9083 105.685 13.9269 106.937 13.9824C106.965 18.2463 106.975 22.5102 106.965 26.7742C105.699 26.7742 104.433 26.7742 103.167 26.7742C103.176 26.3083 103.167 25.8428 103.139 25.3777C102.566 26.0973 101.831 26.5721 100.932 26.8021C98.475 27.3423 96.3803 26.6999 94.6481 24.875C92.9813 22.7774 92.5718 20.4499 93.4192 17.8925C94.5017 15.3301 96.4289 13.915 99.2006 13.6472ZM99.7034 17.3339C101.005 17.2362 102.02 17.7204 102.748 18.7863C103.327 19.907 103.29 21.0055 102.636 22.082C101.743 23.1989 100.598 23.5806 99.2006 23.2271C97.2578 22.4794 96.597 21.1109 97.2176 19.1214C97.76 18.1225 98.5884 17.5267 99.7034 17.3339Z" fill="#3C3B3B"/>
<path opacity="0.995" fill-rule="evenodd" clip-rule="evenodd" d="M113.612 33.0304C112.253 33.0304 110.893 33.0304 109.534 33.0304C110.55 30.5038 111.556 27.9715 112.551 25.4335C110.946 21.6103 109.326 17.7932 107.691 13.9823C109.05 13.9079 110.41 13.9079 111.769 13.9823C112.675 16.3719 113.596 18.7552 114.534 21.1323C115.465 18.749 116.395 16.3657 117.327 13.9823C118.672 13.9268 120.022 13.9082 121.376 13.9265C118.788 20.2945 116.2 26.6624 113.612 33.0304Z" fill="#3C3B3B"/>
<path opacity="0.982" fill-rule="evenodd" clip-rule="evenodd" d="M124.84 21.2441C125.774 21.2291 126.556 21.5549 127.186 22.2216C126.935 22.5001 126.656 22.7515 126.348 22.9757C125.324 22.2003 124.347 22.2561 123.416 23.1433C122.819 24.1807 122.959 25.1024 123.834 25.9083C124.718 26.4426 125.556 26.3775 126.348 25.7128C126.654 25.9537 126.952 26.2051 127.242 26.4669C125.964 27.6123 124.586 27.7427 123.108 26.858C122.265 26.2152 121.856 25.3586 121.879 24.2884C122.028 22.4547 123.015 21.4399 124.84 21.2441Z" fill="#3C3B3B"/>
<path opacity="0.984" fill-rule="evenodd" clip-rule="evenodd" d="M130.594 21.2441C132.302 21.2679 133.354 22.1058 133.75 23.7578C133.931 25.9491 132.934 27.178 130.761 27.4445C128.849 27.2913 127.824 26.2579 127.689 24.3443C127.806 22.5048 128.775 21.4714 130.594 21.2441ZM130.65 22.4172C132.106 22.5609 132.748 23.3615 132.577 24.8191C132.222 25.923 131.468 26.3978 130.314 26.2435C129.199 25.8713 128.724 25.0986 128.89 23.9254C129.127 23.0081 129.714 22.5053 130.65 22.4172Z" fill="#3C3B3B"/>
<path opacity="0.99" fill-rule="evenodd" clip-rule="evenodd" d="M144 23.1992C144 24.5771 144 25.9549 144 27.3328C143.613 27.3502 143.231 27.3316 142.855 27.2769C142.836 26.0108 142.817 24.7446 142.799 23.4785C142.645 22.8126 142.226 22.4588 141.542 22.4172C140.836 22.4627 140.361 22.8164 140.118 23.4785C140.036 24.7603 140.008 26.045 140.034 27.3328C139.643 27.3328 139.252 27.3328 138.861 27.3328C138.885 26.0086 138.857 24.6866 138.777 23.3668C138.44 22.5143 137.835 22.2443 136.962 22.5568C136.491 22.7483 136.202 23.0928 136.096 23.5902C136.016 24.8358 135.988 26.0833 136.012 27.3328C135.621 27.3328 135.23 27.3328 134.839 27.3328C134.839 25.3591 134.839 23.3854 134.839 21.4117C135.23 21.4117 135.621 21.4117 136.012 21.4117C136.002 21.6731 136.012 21.9337 136.04 22.1937C136.468 21.5935 137.054 21.2956 137.799 21.3C138.68 21.2887 139.341 21.6612 139.782 22.4172C140.36 21.4602 141.207 21.0971 142.324 21.3279C143.302 21.5805 143.86 22.2043 144 23.1992Z" fill="#3C3B3B"/>
<path opacity="0.993" fill-rule="evenodd" clip-rule="evenodd" d="M21.6125 22.2496C22.6746 22.1286 23.559 22.4638 24.2658 23.255C25.0781 24.4568 25.0409 25.6298 24.1541 26.7742C23.0392 27.7939 21.8196 27.9335 20.4953 27.1931C19.2501 26.1624 18.9987 24.9242 19.7412 23.4785C20.2177 22.8358 20.8415 22.4262 21.6125 22.2496Z" fill="#3C3B3B"/>
<path opacity="0.98" fill-rule="evenodd" clip-rule="evenodd" d="M118.752 25.3777C119.373 25.2645 119.746 25.5159 119.869 26.1318C119.732 26.7865 119.341 27.0286 118.696 26.8579C118.093 26.3468 118.112 25.8534 118.752 25.3777Z" fill="#3C3B3B"/>
</svg>
