<svg width="144" height="40" viewBox="0 0 144 40" fill="none" xmlns="http://www.w3.org/2000/svg">
<rect width="144" height="39.8535" fill="#F9F9F9"/>
<path d="M29.395 6.0038L37.8039 6.95159C37.8917 6.9616 37.9765 6.98961 38.053 7.03385C38.1295 7.0781 38.196 7.13764 38.2484 7.20874L44.4936 15.6397C44.5806 15.7564 44.6254 15.8991 44.6207 16.0446C44.6161 16.1901 44.5622 16.3297 44.4679 16.4405L29.5567 33.9269C29.5011 33.9922 29.4219 34.0327 29.3365 34.0396C29.2511 34.0465 29.1664 34.0192 29.1011 33.9637L29.0644 33.9269L14.1532 16.4405C14.0589 16.3297 14.005 16.1901 14.0003 16.0446C13.9957 15.8991 14.0405 15.7564 14.1275 15.6397L20.3726 7.20874C20.4251 7.13764 20.4916 7.0781 20.5681 7.03385C20.6446 6.98961 20.7294 6.9616 20.8171 6.95159L29.2554 6.0038C29.3018 5.99873 29.3486 5.99873 29.395 6.0038ZM31.14 7.84061C31.1166 7.81723 31.0854 7.80319 31.0524 7.80113C31.0194 7.79907 30.9868 7.80913 30.9606 7.82941C30.9345 7.84969 30.9167 7.8788 30.9105 7.91129C30.9042 7.94379 30.9101 7.97743 30.9269 8.00591L35.6696 13.9057C35.7055 13.9514 35.7284 14.0059 35.7359 14.0635C35.7435 14.1211 35.7354 14.1797 35.7124 14.2331C35.6895 14.2865 35.6526 14.3327 35.6056 14.3669C35.5586 14.4011 35.5033 14.422 35.4455 14.4274H23.216C23.158 14.4269 23.1013 14.4108 23.0516 14.3808C23.002 14.3509 22.9614 14.3081 22.9339 14.257C22.9065 14.2059 22.8934 14.1484 22.8958 14.0905C22.8982 14.0326 22.9162 13.9764 22.9478 13.9278V13.9057L27.6905 8.00591C27.7119 7.9802 27.7231 7.94749 27.7219 7.91405C27.7207 7.88061 27.7072 7.84878 27.684 7.82466C27.6608 7.80055 27.6295 7.78584 27.5961 7.78336C27.5628 7.78088 27.5296 7.79079 27.5031 7.81121L21.078 14.2657C21.0429 14.3016 20.9981 14.3265 20.949 14.3372C20.9 14.3479 20.8489 14.3441 20.802 14.3261C20.7552 14.3082 20.7146 14.2769 20.6853 14.2361C20.656 14.1954 20.6392 14.1469 20.6371 14.0968V14.071L20.8576 9.39454C20.8599 9.36337 20.8508 9.33242 20.832 9.30747C20.8132 9.28252 20.7859 9.26529 20.7553 9.25898C20.7247 9.25268 20.6928 9.25774 20.6656 9.27322C20.6385 9.28871 20.6179 9.31356 20.6078 9.34311L19.3918 14.725C19.3687 14.8133 19.3225 14.8939 19.2579 14.9584C19.1933 15.023 19.1128 15.0692 19.0244 15.0923H18.9914L15.979 15.7425C15.9491 15.7476 15.9219 15.7632 15.9024 15.7864C15.8828 15.8096 15.8721 15.8389 15.8721 15.8693C15.8721 15.8996 15.8828 15.929 15.9024 15.9522C15.9219 15.9754 15.9491 15.9909 15.979 15.996H19.0024C19.0879 15.9964 19.172 16.0181 19.2471 16.0591C19.3221 16.1002 19.3858 16.1593 19.4322 16.2311V16.2605L26.6435 29.1182C26.6644 29.1669 26.7039 29.2053 26.7531 29.2249C26.8024 29.2445 26.8574 29.2438 26.9062 29.2229C26.9549 29.2019 26.9933 29.1625 27.0129 29.1132C27.0325 29.064 27.0318 29.0089 27.0109 28.9602V28.9418L21.1735 16.6022C21.1463 16.5453 21.1335 16.4826 21.1362 16.4196C21.1389 16.3566 21.157 16.2952 21.1889 16.2409C21.2208 16.1865 21.2656 16.1408 21.3192 16.1077C21.3729 16.0746 21.4339 16.0552 21.4968 16.0511H37.0876C37.1509 16.0498 37.2136 16.0642 37.2701 16.0929C37.3266 16.1216 37.3752 16.1638 37.4115 16.2157C37.4478 16.2677 37.4708 16.3277 37.4783 16.3907C37.4859 16.4536 37.4779 16.5174 37.4549 16.5765V16.6022L31.6249 28.9969C31.6087 29.0399 31.6082 29.0871 31.6234 29.1304C31.6387 29.1737 31.6687 29.2101 31.7083 29.2334C31.7478 29.2567 31.7943 29.2653 31.8395 29.2576C31.8848 29.25 31.9259 29.2266 31.9555 29.1916L39.1668 16.334C39.2089 16.2594 39.2688 16.1965 39.3413 16.1509C39.4138 16.1054 39.4965 16.0787 39.5819 16.0732H42.6237C42.6542 16.0735 42.6837 16.063 42.7071 16.0435C42.7305 16.0241 42.7463 15.9969 42.7516 15.9669C42.7569 15.937 42.7514 15.9061 42.736 15.8798C42.7207 15.8535 42.6965 15.8335 42.6678 15.8234L39.6554 15.1731C39.5671 15.15 39.4865 15.1038 39.4219 15.0393C39.3574 14.9747 39.3112 14.8941 39.2881 14.8058V14.7727L38.0354 9.36515C38.0303 9.33524 38.0147 9.3081 37.9915 9.28854C37.9683 9.26897 37.939 9.25823 37.9086 9.25823C37.8783 9.25823 37.8489 9.26897 37.8257 9.28854C37.8025 9.3081 37.787 9.33524 37.7819 9.36515L38.0023 14.0417C38.0049 14.0913 37.993 14.1406 37.9681 14.1837C37.9432 14.2267 37.9064 14.2617 37.8621 14.2842C37.8178 14.3067 37.7679 14.316 37.7184 14.3107C37.669 14.3055 37.6221 14.286 37.5835 14.2547H37.5651L31.14 7.84061ZM60.8485 10.4672C63.1167 10.4771 65.3488 11.0354 67.3545 12.0946L67.5602 12.2012L67.663 12.2563L67.8651 12.3628L67.9643 12.4179L68.1663 12.5281L68.2655 12.5832L68.4639 12.6971L68.5631 12.7522L68.7578 12.8661L67.5822 15.3384C65.4883 14.1151 63.2951 13.2224 60.7162 13.2224C58.1374 13.2224 56.9398 14.1408 56.9398 15.4927C56.9398 16.4405 57.6451 17.0357 58.9603 17.4471L59.0925 17.4875L59.2284 17.5279L59.368 17.5647L59.515 17.6014H59.5884L59.7391 17.6381H59.8162L59.9742 17.6712L60.1358 17.7043H60.2166L60.3819 17.7373L63.8021 18.3508L64.2098 18.4316L64.4082 18.4757C67.4977 19.159 69.2353 20.5182 69.2353 23.2992C69.2353 26.9434 66.1973 28.9822 61.6567 28.9822C59.1951 28.9928 56.7788 28.32 54.6768 27.0389L54.5262 26.9434L54.3793 26.8479L54.2323 26.7524L53.9531 26.5613L53.8172 26.4658L53.6849 26.3703L53.5564 26.2748L53.4315 26.1793L53.3102 26.0838L53.1927 25.9882L53.0788 25.8927L53.0237 25.845L52.9135 25.7495L52.8069 25.6539L52.7555 25.6062L52.6563 25.5143L52.6086 25.4666L54.2911 23.1485L54.3646 23.2147L54.5152 23.3469L54.5923 23.413L54.7466 23.5416L54.8238 23.6041L54.9817 23.7326L55.1434 23.8576C56.9932 25.3747 59.3013 26.2226 61.6934 26.2638H62.1196H62.2592H62.3988H62.5347H62.6706H62.8029L63.1923 26.2087L63.3172 26.1866L63.4421 26.1609L63.5633 26.1352L63.6845 26.1058L63.8021 26.0727L63.9196 26.0397L64.0335 26.0029C65.2348 25.6099 66.0283 24.8458 66.0283 23.6224C66.0283 22.6453 65.4479 22.0575 64.1915 21.6534L64.0592 21.613L63.8498 21.5542L63.7029 21.5175L63.5523 21.4807L63.3943 21.444H63.3135H63.2327L59.6619 20.7827L59.3276 20.7129L59.1109 20.6652L59.0043 20.6395L58.7913 20.588L58.5819 20.5366C55.4887 19.7505 53.8062 18.3839 53.8062 15.8601C53.7805 12.5502 56.4402 10.4672 60.8485 10.4672ZM89.2675 15.6103C92.8567 15.6103 95.1159 18.1083 95.1453 21.8554V22.1603V22.3073V22.491V22.5975V22.6563H85.976C86.1303 25.1286 87.4454 26.5834 89.4218 26.5834C90.8509 26.5834 91.8134 25.8927 92.1844 24.8053L92.2028 24.7502H95.0608C94.5759 27.1454 92.5848 28.9822 89.3704 28.9822C85.5682 28.9822 83.0665 26.3299 83.0665 22.3293C83.0665 18.3288 85.5682 15.6103 89.2675 15.6103ZM111.35 15.6103C114.608 15.6103 116.79 17.6345 117.106 20.4448V20.5293H114.167C114.113 19.8216 113.783 19.1637 113.248 18.6966C112.714 18.2295 112.018 17.9906 111.309 18.0312C109.395 18.0312 108.172 19.5851 108.172 22.2889C108.172 24.9927 109.447 26.5466 111.361 26.5466C113.073 26.5466 113.932 25.3784 114.16 23.9274V23.8686H117.069C116.739 26.8515 114.542 28.9675 111.276 28.9675C107.628 28.9675 105.204 26.2674 105.204 22.3146C105.204 18.3618 107.65 15.6103 111.35 15.6103ZM74.0919 10.8346V21.5909L79.4002 15.9079H82.8902L78.0924 20.8268L83.2355 28.6773H79.8154L76.0572 22.6195L74.0919 24.6327V28.6737H71.1824V10.8346H74.0919ZM100.656 11.202V15.8932H103.54V18.1818H100.656V24.8347C100.656 24.9106 100.656 24.9829 100.656 25.0515V25.1323C100.729 25.8376 101.104 26.1976 102.162 26.2123H104.366V28.659H101.405C99.0063 28.659 97.7573 27.612 97.7316 25.5658V18.1818H95.869V15.8895H97.7316V12.8808L100.656 11.202ZM121.937 10.8346V18.3802C122.881 16.9108 124.439 15.6287 126.301 15.6287C128.954 15.6287 130.43 17.4655 130.46 20.555V28.6773H127.55V21.5469C127.55 21.3019 127.543 21.0791 127.528 20.8783V20.7387V20.6725V20.5403C127.337 18.9165 126.617 18.2075 125.284 18.2075C123.642 18.2075 121.999 19.7321 121.977 22.311V28.659H119.068V10.8346H121.937ZM89.2639 17.9247C88.5476 17.912 87.8497 18.1516 87.2923 18.6015C86.7349 19.0515 86.3535 19.6832 86.2148 20.386V20.4484H92.0926C91.9456 18.8504 90.8252 17.9063 89.2675 17.9063L89.2639 17.9247Z" fill="#3C3B3B"/>
</svg>
