<svg width="144" height="40" viewBox="0 0 144 40" fill="none" xmlns="http://www.w3.org/2000/svg">
<rect width="144" height="39.8535" fill="#F9F9F9"/>
<path d="M45.8619 15.5043C45.3428 15.0682 44.699 14.8605 44.0138 14.8605C43.5569 14.8398 43.1208 14.9644 42.7055 15.172C42.2902 15.3797 41.9372 15.6704 41.6257 16.0234C41.3142 16.3764 41.1066 16.771 40.9404 17.2278H47.0456C46.7964 16.5218 46.3811 15.9403 45.8619 15.5043Z" fill="#3C3B3B"/>
<path d="M59.3809 4H14.9422C12.2219 4 10 6.20117 10 8.94225V25.2433C10 27.9637 12.2012 30.1856 14.9422 30.1856H47.1084L55.83 36L54.0857 30.1856H59.4017C62.1012 30.1856 64.3232 27.9637 64.3232 25.2433V8.94225C64.3232 6.22193 62.122 4 59.3809 4ZM27.1733 11.4134V18.7229C27.1733 19.8858 26.9241 20.8618 26.4465 21.6716C25.9688 22.4607 25.3251 23.0422 24.5152 23.416C23.7054 23.8105 22.7917 23.9766 21.8157 23.9766C20.8397 23.9766 19.926 23.7897 19.1162 23.3952C18.3063 23.0006 17.6626 22.4192 17.1849 21.6301C16.7073 20.841 16.4581 19.865 16.4581 18.7021V11.4134C16.4581 11.3095 16.4997 11.2472 16.562 11.1642C16.6035 11.1226 16.6243 11.1019 16.6658 11.0811C16.7073 11.0603 16.7489 11.0396 16.7904 11.0396H18.6593C18.7631 11.0396 18.867 11.0811 18.9085 11.1434C18.95 11.2057 18.9916 11.2888 18.9916 11.3926V18.7229C18.9916 19.3874 19.1162 19.9273 19.3653 20.3842C19.6145 20.841 19.9676 21.194 20.3829 21.4017C20.8189 21.6509 21.2758 21.7547 21.8157 21.7547C22.3556 21.7547 22.8332 21.6301 23.2485 21.3809C23.6846 21.1317 24.0376 20.7787 24.2661 20.3219C24.5152 19.865 24.6606 19.3459 24.6606 18.7437V11.4134C24.6606 11.3095 24.7021 11.2265 24.7644 11.1642C24.8267 11.1019 24.9098 11.0603 25.0136 11.0603H26.7995C26.9033 11.0603 27.0071 11.1019 27.0694 11.1642C27.111 11.2057 27.1317 11.2472 27.1525 11.268C27.1733 11.3095 27.194 11.3718 27.1733 11.4134ZM36.3725 22.4815C35.9779 23.0006 35.4796 23.3744 34.8566 23.6236C34.2336 23.8728 33.5691 23.9974 32.9046 23.9974C32.0532 23.9974 31.2849 23.8313 30.6204 23.4783C29.9559 23.1252 29.3952 22.6269 29.0006 22.0039C28.9591 21.9416 28.9383 21.8793 28.8968 21.817C28.8761 21.7547 28.8553 21.6924 28.8553 21.6509C28.8553 21.5263 28.8968 21.4432 29.0629 21.3602L30.1635 20.5711C30.2258 20.5503 30.2881 20.5088 30.3504 20.5088C30.475 20.5088 30.5581 20.5711 30.6619 20.6957C30.9319 21.0902 31.2433 21.3809 31.5548 21.6093C31.8871 21.8378 32.2816 21.9416 32.7592 21.9416C33.05 21.9416 33.3615 21.8793 33.6314 21.7755C33.9221 21.6509 34.1505 21.5055 34.3374 21.3186C34.5036 21.111 34.6074 20.9033 34.6074 20.6541C34.6074 20.3842 34.5451 20.1973 34.4413 20.0519C34.3374 19.9066 34.1921 19.8235 34.0052 19.7404C33.8183 19.6574 33.5483 19.5535 33.1538 19.4497C33.0915 19.4497 32.8838 19.3874 32.5516 19.2836C31.7625 19.0552 31.1395 18.7852 30.6619 18.4737C30.1843 18.183 29.8313 17.8092 29.5821 17.3731C29.3329 16.9371 29.2291 16.3971 29.2291 15.7949C29.2291 15.2966 29.3744 14.8189 29.6859 14.3413C29.9974 13.8637 30.4335 13.4899 31.0149 13.1785C31.5964 12.867 32.2609 12.7216 33.0084 12.7216C33.8183 12.7216 34.5036 12.8877 35.085 13.22C35.6457 13.5522 36.1233 13.9676 36.5178 14.4452C36.6009 14.5698 36.6424 14.6736 36.6424 14.7359C36.6424 14.8189 36.5801 14.8812 36.4763 14.9851L35.4588 15.8157C35.3757 15.878 35.2927 15.9195 35.2304 15.9195C35.1265 15.9195 35.0642 15.8572 34.9604 15.7534C34.6905 15.4627 34.4205 15.2135 34.1298 15.0681C33.8391 14.9228 33.486 14.8397 33.05 14.8397C32.6139 14.8397 32.2401 14.9435 31.9909 15.1304C31.721 15.3173 31.5964 15.5457 31.5964 15.8572C31.5964 16.1064 31.6587 16.2725 31.804 16.4179C31.9286 16.5425 32.1155 16.6463 32.3439 16.7502C32.5724 16.8332 32.9254 16.9578 33.403 17.0824C33.486 17.1032 33.5899 17.1239 33.6937 17.1655C33.7975 17.1862 33.9221 17.2278 34.0467 17.2693C35.0227 17.5808 35.7495 18.0169 36.2271 18.6191C36.7047 19.2213 36.9539 19.9066 36.9539 20.6541C36.9539 21.4017 36.767 21.9831 36.3725 22.4815ZM49.3095 19.0136C49.2472 19.1382 49.1434 19.2213 49.0603 19.2421C48.9565 19.2836 48.7696 19.2836 48.5412 19.2836H40.8579C40.9617 19.8027 41.1901 20.2388 41.5016 20.6334C41.8131 21.0279 42.1869 21.3186 42.6437 21.5263C43.1006 21.7339 43.5782 21.8378 44.0766 21.8378C44.4711 21.8378 44.8034 21.7962 45.1149 21.7132C45.4056 21.6301 45.634 21.547 45.8417 21.4225C46.0701 21.2979 46.2777 21.1525 46.4646 20.9864L46.7138 20.7995C46.7969 20.7372 46.8799 20.7372 46.9422 20.7372C47.0461 20.7372 47.1084 20.7787 47.1499 20.841L48.0221 21.9208C48.0844 22.0247 48.1259 22.087 48.1259 22.17C48.1259 22.2738 48.0844 22.3361 48.0013 22.4192C47.3576 22.9799 46.7346 23.3744 46.0908 23.6444C45.4679 23.8936 44.7826 24.0182 44.0558 24.0182C43.0798 24.0182 42.1454 23.769 41.294 23.2706C40.4218 22.7515 39.7365 22.087 39.2174 21.2148C38.6982 20.3426 38.4491 19.4289 38.4491 18.4114C38.4491 17.3939 38.6982 16.4387 39.1759 15.5873C39.6535 14.7151 40.318 14.0506 41.1694 13.5315C42.0208 13.0123 42.9552 12.7839 44.0143 12.7839C44.8657 12.7839 45.6963 12.9916 46.5269 13.4069C47.3576 13.8222 48.0428 14.4452 48.6035 15.2966C49.1434 16.148 49.4134 17.1862 49.4134 18.4114C49.4134 18.6814 49.3718 18.889 49.3095 19.0136ZM59.2771 14.5075L58.4672 15.6496C58.3842 15.7534 58.3219 15.7949 58.218 15.7949C58.135 15.7949 58.0519 15.7534 57.9481 15.6911C57.6574 15.5042 57.3459 15.3381 57.0344 15.1927C56.7229 15.0681 56.3907 15.0058 56.0169 15.0058C55.6431 15.0058 55.2901 15.1097 54.9786 15.2758C54.6256 15.4419 54.3764 15.7119 54.1687 16.0857C53.9611 16.4594 53.8572 16.9163 53.8572 17.4562V23.4575C53.8572 23.7067 53.7534 23.8105 53.5042 23.8105H51.7391C51.5107 23.8105 51.4069 23.7067 51.4069 23.4575V13.2408C51.4069 12.9916 51.5107 12.867 51.7391 12.867H52.9643C53.1304 12.867 53.2343 12.8877 53.3796 12.8877C53.4627 12.9293 53.5042 13.0539 53.5457 13.22L53.7119 14.1752C54.0026 13.6976 54.3556 13.3446 54.8125 13.0954C55.2693 12.8254 55.7677 12.7008 56.3076 12.7008C56.9098 12.7008 57.4497 12.8462 57.9481 13.0954C58.4672 13.3653 58.8825 13.6353 59.194 13.9053C59.3186 14.0299 59.3809 14.1544 59.3809 14.2583C59.3809 14.3413 59.3394 14.4244 59.2771 14.5075Z" fill="#3C3B3B"/>
<path d="M67.4795 11.0811H76.6372C76.8656 11.0811 76.9694 11.185 76.9694 11.4134V13.0331C76.9694 13.2615 76.8656 13.3861 76.6372 13.3861H73.2524V23.4575C73.2524 23.6859 73.1485 23.7898 72.9201 23.7898H71.072C70.8435 23.7898 70.7397 23.6859 70.7397 23.4575V13.3654H67.4587C67.2303 13.3654 67.1265 13.2615 67.1265 13.0123V11.4134C67.1265 11.2057 67.2511 11.0811 67.4795 11.0811ZM85.1511 20.7372C85.2549 20.7372 85.3172 20.7787 85.3588 20.841L86.2309 21.9208C86.2932 22.0247 86.3348 22.087 86.3348 22.17C86.3348 22.2739 86.2932 22.3362 86.2102 22.4192C85.5664 22.9799 84.9435 23.3744 84.2997 23.6444C83.656 23.8936 82.9915 24.0182 82.2647 24.0182C81.2887 24.0182 80.3542 23.769 79.5028 23.2706C78.6307 22.7515 77.9454 22.087 77.4263 21.2148C76.9071 20.3426 76.6579 19.429 76.6579 18.4114C76.6579 17.3939 76.9071 16.4387 77.3847 15.5873C77.8623 14.7151 78.5269 14.0506 79.3782 13.5315C80.2296 13.0123 81.1641 12.7839 82.2232 12.7839C83.0745 12.7839 83.9259 12.9916 84.7358 13.4069C85.5664 13.8222 86.2517 14.4452 86.8124 15.2966C87.3523 16.148 87.6222 17.1863 87.6222 18.4114C87.6222 18.6814 87.5807 18.889 87.5184 19.0136C87.4561 19.1382 87.3523 19.2213 87.2692 19.2421C87.1654 19.2836 86.9785 19.2836 86.7501 19.2836H79.0668C79.1706 19.8027 79.399 20.2388 79.7105 20.6334C80.022 21.0279 80.3958 21.3186 80.8526 21.5263C81.3095 21.734 81.7871 21.8378 82.3062 21.8378C82.7008 21.8378 83.033 21.7963 83.3445 21.7132C83.6352 21.6301 83.8636 21.5471 84.0713 21.4225C84.2997 21.2979 84.5074 21.1525 84.6943 20.9864L84.9435 20.7995C85.0058 20.7372 85.0888 20.7372 85.1511 20.7372ZM80.8941 15.172C80.4788 15.3796 80.1258 15.6704 79.8143 16.0234C79.5028 16.3764 79.2952 16.7709 79.1291 17.2278H85.2549C85.0058 16.5218 84.5905 15.9403 84.0713 15.5042C83.5522 15.0682 82.9084 14.8605 82.2024 14.8605C81.7663 14.8397 81.2887 14.9643 80.8941 15.172ZM88.3698 21.7963C88.349 21.7547 88.3283 21.6924 88.3283 21.6301C88.3283 21.5263 88.3698 21.4225 88.4736 21.3186L89.5535 20.488C89.595 20.4465 89.6573 20.4049 89.7403 20.4257C89.8442 20.4257 89.9688 20.488 90.0518 20.6126C90.3218 21.0072 90.6333 21.2979 90.9448 21.5263C91.2562 21.7547 91.6716 21.8585 92.1492 21.8585C92.4607 21.8585 92.7514 21.817 93.0213 21.6924C93.3121 21.5886 93.5405 21.4432 93.7274 21.2356C93.8935 21.0487 93.9973 20.8203 93.9973 20.5711C93.9973 20.3219 93.9558 20.1142 93.8312 19.9689C93.7274 19.8235 93.582 19.7197 93.3951 19.6574C93.2082 19.5951 92.9383 19.4913 92.5437 19.3667C92.4814 19.3459 92.2945 19.3044 91.9415 19.2005C91.1524 18.9513 90.5294 18.6814 90.0518 18.3907C89.5742 18.0792 89.2212 17.7262 88.972 17.2901C88.7228 16.854 88.619 16.3349 88.619 15.7119C88.619 15.2135 88.7851 14.7359 89.0758 14.2583C89.3873 13.7807 89.8234 13.3861 90.4049 13.0954C90.9863 12.7839 91.63 12.6386 92.3984 12.6386C93.2082 12.6386 93.9143 12.8047 94.4749 13.1369C95.0564 13.4692 95.534 13.8637 95.9078 14.3621C96.0116 14.4659 96.0324 14.5698 96.0324 14.6528C96.0324 14.7359 95.9701 14.819 95.8662 14.902L94.8487 15.7327C94.7449 15.795 94.6826 15.8365 94.6203 15.8365C94.5372 15.8365 94.4542 15.7742 94.3503 15.6704C94.1012 15.3589 93.8104 15.1512 93.5197 14.9851C93.229 14.8397 92.8552 14.7567 92.4399 14.7567C91.983 14.7567 91.63 14.8605 91.3808 15.0474C91.1317 15.2343 90.9863 15.4835 90.9863 15.7742C90.9863 16.0234 91.0486 16.1895 91.194 16.3349C91.3393 16.4802 91.5054 16.5841 91.7339 16.6671C91.9623 16.7709 92.3361 16.854 92.7929 16.9994C92.8967 17.0201 92.9798 17.0409 93.0836 17.0824C93.1875 17.124 93.3121 17.1447 93.4366 17.1863C94.4126 17.477 95.1394 17.9131 95.6171 18.536C96.0947 19.159 96.3439 19.8235 96.3439 20.5711C96.3439 21.2771 96.157 21.8793 95.7624 22.3985C95.3679 22.8968 94.8695 23.2706 94.2465 23.5406C93.6235 23.7898 92.959 23.9351 92.2945 23.9144C91.4431 23.9144 90.6748 23.7482 90.0103 23.3952C89.3458 23.0422 88.8059 22.5438 88.3906 21.9208C88.4321 21.9208 88.3906 21.8585 88.3698 21.7963ZM102.283 12.95C102.532 12.95 102.657 13.0746 102.657 13.3238V14.7359C102.657 14.8397 102.615 14.9436 102.553 15.0059C102.47 15.0682 102.387 15.1097 102.262 15.1097H101.037V20.4465C101.037 20.841 101.099 21.1317 101.245 21.3809C101.39 21.6094 101.639 21.734 101.971 21.7547L102.241 21.7755C102.428 21.7963 102.553 21.8378 102.615 21.9416C102.677 22.0454 102.698 22.1493 102.677 22.2531V23.4783C102.677 23.769 102.449 23.9144 102.013 23.9144C101.348 23.9144 100.746 23.7898 100.227 23.5198C99.7079 23.2706 99.2926 22.8968 99.0019 22.4192C98.7111 21.9416 98.5658 21.3809 98.5658 20.7372V15.1512H97.569C97.4652 15.1512 97.3821 15.1097 97.3198 15.0474C97.2368 14.9851 97.216 14.8813 97.216 14.7774V13.3861C97.216 13.2615 97.2575 13.1577 97.3198 13.0746C97.3821 13.0123 97.486 12.9708 97.569 12.9708H98.5658V11.1434C98.5658 11.0188 98.5865 10.9358 98.6281 10.8735C98.6696 10.8112 98.7734 10.7696 98.898 10.7281L100.642 10.209C100.684 10.1882 100.705 10.1882 100.746 10.1882C100.788 10.1882 100.829 10.209 100.85 10.2297C100.892 10.2505 100.912 10.2713 100.933 10.3128C100.975 10.3751 100.995 10.4789 100.995 10.5828V12.9293L102.283 12.95ZM105.003 8.94226H106.498C106.81 8.94226 106.976 9.10839 106.976 9.48217V10.9981C106.976 11.1642 106.934 11.3096 106.872 11.3719C106.81 11.4341 106.664 11.4757 106.498 11.4757H105.003C104.65 11.4757 104.484 11.3096 104.484 10.9981V9.48217C104.463 9.12915 104.65 8.94226 105.003 8.94226ZM104.65 12.95C104.712 12.8878 104.796 12.8462 104.899 12.8462H106.706C106.81 12.8462 106.872 12.8878 106.955 12.95C107.017 13.0123 107.059 13.0954 107.059 13.1992V23.4367C107.059 23.6652 106.955 23.7898 106.727 23.7898H104.92C104.692 23.7898 104.588 23.6859 104.588 23.4367V13.22C104.546 13.0954 104.588 13.0123 104.65 12.95ZM111.254 23.7067C111.15 23.769 111.025 23.8105 110.921 23.8105H109.343C109.094 23.8105 108.969 23.6859 108.969 23.4367V13.22C108.969 12.9708 109.094 12.8462 109.343 12.8462H110.506C110.61 12.8462 110.755 12.8878 110.818 12.9708C110.921 13.0539 110.984 13.1577 111.004 13.2823L111.15 14.5075C111.565 13.9053 112.064 13.49 112.666 13.1992C113.268 12.9085 113.891 12.7632 114.555 12.7632C115.22 12.7632 115.864 12.9293 116.487 13.2615C117.11 13.5938 117.629 14.1129 118.044 14.7982C118.439 15.4835 118.646 16.3556 118.646 17.3731V23.416C118.646 23.6652 118.542 23.769 118.314 23.769H116.59C116.341 23.769 116.217 23.6652 116.217 23.416V17.4562C116.217 17.0409 116.113 16.6463 115.905 16.2933C115.698 15.9403 115.407 15.6288 115.054 15.4004C114.68 15.172 114.285 15.0682 113.829 15.0682C113.434 15.0682 113.06 15.172 112.686 15.3796C112.292 15.5873 112.001 15.878 111.752 16.2518C111.503 16.6463 111.378 17.0824 111.378 17.5808V23.3952C111.399 23.5406 111.357 23.6236 111.254 23.7067ZM130.545 24.828C130.067 25.7002 129.424 26.3439 128.593 26.8008C127.762 27.2576 126.807 27.4653 125.727 27.4653C125.001 27.4653 124.295 27.3407 123.609 27.0915C122.903 26.8423 122.301 26.5101 121.823 26.0948C121.72 26.0117 121.678 25.9286 121.678 25.8456C121.678 25.7833 121.72 25.7002 121.782 25.5964L122.509 24.5581C122.592 24.4543 122.675 24.392 122.82 24.392C122.924 24.392 123.007 24.4335 123.132 24.4958C123.879 25.0149 124.814 25.2849 125.956 25.2849C126.537 25.2849 127.036 25.1603 127.492 24.8903C127.949 24.6412 128.302 24.2881 128.552 23.8313C128.801 23.3744 128.946 22.8761 128.946 22.2946V22.2531C128.468 22.7722 127.949 23.146 127.43 23.416C126.911 23.6652 126.267 23.8105 125.561 23.8105C124.606 23.8105 123.713 23.5821 122.903 23.1045C122.073 22.6476 121.408 21.9831 120.91 21.1525C120.411 20.3219 120.162 19.3667 120.183 18.3076C120.183 17.3109 120.432 16.3764 120.91 15.5458C121.408 14.6944 122.073 14.0091 122.903 13.49C123.734 12.9708 124.627 12.7216 125.561 12.7216C126.932 12.7216 128.095 13.2408 129.071 14.2998L129.216 13.2823C129.237 13.1162 129.278 13.0123 129.341 12.95C129.403 12.8878 129.507 12.8462 129.631 12.8462H131.002C131.21 12.8462 131.313 12.9708 131.313 13.22V21.6301C131.251 22.9176 131.002 23.9559 130.545 24.828ZM128.51 16.6463C128.219 16.1272 127.845 15.7119 127.347 15.4212C126.849 15.1097 126.309 14.9643 125.686 14.9643C125.063 14.9643 124.481 15.1304 123.983 15.4212C123.485 15.7327 123.111 16.148 122.82 16.6671C122.55 17.1863 122.405 17.7469 122.405 18.3907C122.405 19.0344 122.55 19.6158 122.841 20.135C123.132 20.6541 123.526 21.0487 124.025 21.3394C124.523 21.6301 125.084 21.7755 125.686 21.7755C126.288 21.7755 126.849 21.6301 127.326 21.3186C127.804 21.0072 128.198 20.5918 128.489 20.0935C128.759 19.5743 128.905 19.0136 128.905 18.3907C128.925 17.7262 128.78 17.1655 128.51 16.6463ZM133.328 12.867C132.642 12.867 132.082 13.4277 132.082 14.1129C132.082 14.7982 132.642 15.3589 133.328 15.3589C134.013 15.3589 134.574 14.7982 134.574 14.1129C134.574 13.4277 134.013 12.867 133.328 12.867ZM133.328 15.1097C132.808 15.1097 132.352 14.6528 132.352 14.1129C132.352 13.573 132.808 13.1162 133.328 13.1162C133.847 13.1162 134.304 13.5523 134.304 14.1129C134.304 14.6528 133.847 15.1097 133.328 15.1097ZM132.85 13.4484C132.85 13.4484 132.871 13.4277 132.892 13.4277H133.473C133.556 13.4277 133.639 13.4484 133.701 13.49C133.764 13.5315 133.805 13.5938 133.868 13.6561C133.909 13.7184 133.93 13.8014 133.93 13.8845C133.93 13.9676 133.909 14.0299 133.868 14.1129C133.826 14.1752 133.764 14.2375 133.701 14.2791L133.951 14.7774V14.819H133.639C133.639 14.819 133.618 14.7982 133.618 14.7774L133.39 14.3206H133.12V14.7567C133.12 14.7982 133.099 14.7982 133.078 14.7982H132.892C132.85 14.7982 132.85 14.7774 132.85 14.7567V13.4484C132.836 13.4484 132.836 13.4484 132.85 13.4484ZM133.099 14.0922H133.39C133.431 14.0922 133.473 14.0714 133.494 14.0506C133.535 14.0299 133.556 14.0091 133.577 13.9676C133.598 13.926 133.618 13.9053 133.618 13.8637C133.618 13.8222 133.598 13.7807 133.577 13.7599C133.556 13.7184 133.535 13.6976 133.494 13.6768C133.452 13.6561 133.431 13.6353 133.39 13.6353H133.099V14.0922Z" fill="#3C3B3B"/>
</svg>
