<svg width="24" height="24" viewBox="0 0 24 24" fill="none" xmlns="http://www.w3.org/2000/svg">
<path fill-rule="evenodd" clip-rule="evenodd" d="M12 24C18.6274 24 24 18.6274 24 12C24 5.37256 18.6274 0 12 0C5.37256 0 0 5.37256 0 12C0 18.6274 5.37256 24 12 24ZM5 12.0205C5 8.14307 8.14282 5 12.0198 5C15.8972 5 19.04 8.14307 19.04 12.0205C19.04 15.897 15.8967 19.04 12.0198 19.04C8.14282 19.04 5 15.8965 5 12.0205ZM17.8024 11.6934C17.7292 10.397 17.2339 9.2124 16.4448 8.27979C15.636 9.2876 14.55 10.0825 13.1987 10.668C13.3571 10.9927 13.505 11.3208 13.6478 11.6509C14.9108 11.4331 16.2958 11.4468 17.8024 11.6934ZM15.5551 7.43311C14.575 6.67676 13.3508 6.22119 12.0198 6.22119C11.5286 6.22119 11.0536 6.28906 10.5978 6.40479C11.3646 7.43506 12.0441 8.49707 12.638 9.58545C13.8772 9.06055 14.8506 8.34229 15.5551 7.43311ZM11.4731 10C10.873 8.92188 10.183 7.87061 9.40436 6.85156C7.91443 7.60938 6.79779 8.98779 6.39233 10.6465C8.35468 10.6333 10.0512 10.4185 11.4731 10ZM6.22504 11.9385C6.22302 11.9653 6.22101 11.9922 6.22101 12.0195C6.22101 13.4277 6.72717 14.7197 7.56403 15.7251C8.83484 13.8188 10.4644 12.5522 12.4408 11.9346C12.3749 11.7866 12.3075 11.6392 12.2385 11.4922C12.1766 11.3599 12.1134 11.228 12.0488 11.0967C10.4219 11.6089 8.47974 11.8672 6.22882 11.8706L6.22504 11.9385ZM8.46106 16.5889C9.44482 17.3564 10.6783 17.8184 12.0198 17.8184C12.7543 17.8184 13.4536 17.6768 14.101 17.4268C13.8471 15.9346 13.4479 14.4785 12.9054 13.0625C11.0837 13.6055 9.61249 14.7817 8.46106 16.5889ZM14.116 12.8057C14.6071 14.1182 14.9824 15.4639 15.2389 16.8398C16.556 15.958 17.4862 14.5498 17.7422 12.9204C16.421 12.6909 15.213 12.6509 14.116 12.8057Z" fill="#C5C5C5"/>
</svg>
