<svg width="24" height="24" viewBox="0 0 24 24" fill="none" xmlns="http://www.w3.org/2000/svg">
<path fill-rule="evenodd" clip-rule="evenodd" d="M24 12C24 18.6274 18.6274 24 12 24C5.37256 24 0 18.6274 0 12C0 5.37256 5.37256 0 12 0C18.6274 0 24 5.37256 24 12ZM18.777 7.94141C18.767 7.95605 18.7569 7.97119 18.7441 7.98633L14.3323 12.9922C13.8575 13.5298 13.1771 13.8384 12.46 13.8384C11.743 13.8384 11.0624 13.5298 10.5877 12.9922L6.1228 7.92627C6.04315 8.10889 6 8.31494 6 8.52734V14.2637C6 15.7441 7.20172 16.9458 8.68225 16.9458H16.2377C17.7183 16.9458 18.92 15.7441 18.92 14.2637V8.52393C18.92 8.30811 18.8735 8.10205 18.7939 7.9165L18.777 7.94141ZM12.4567 12.4971C12.118 12.4971 11.8126 12.3579 11.5902 12.1055L7.13525 7.0498C7.25812 7.02002 7.38757 7 7.52032 7H17.3896C17.5257 7 17.6552 7.02002 17.7813 7.05322C17.7647 7.06641 17.7481 7.08301 17.7315 7.09961L13.3231 12.1055C13.2089 12.2349 13.073 12.3345 12.9219 12.4009C12.7786 12.4639 12.6215 12.4971 12.4567 12.4971Z" fill="#C5C5C5"/>
</svg>
