<svg width="24" height="24" viewBox="0 0 24 24" fill="none" xmlns="http://www.w3.org/2000/svg">
<path fill-rule="evenodd" clip-rule="evenodd" d="M12 24C18.6274 24 24 18.6274 24 12C24 5.37256 18.6274 0 12 0C5.37256 0 0 5.37256 0 12C0 18.6274 5.37256 24 12 24ZM6.24908 17.5244H8.83362V9.1748H6.24908V17.5244ZM6 6.54004C6 7.39062 6.68451 8.08105 7.52856 8.08105C8.37268 8.08105 9.05719 7.39062 9.05719 6.54004C9.05719 5.68945 8.37268 5 7.52856 5C6.68396 5 6 5.68945 6 6.54004ZM15.9471 17.5244H18.5195L18.52 12.2383C18.52 10.0015 17.2522 8.91992 15.4818 8.91992C13.7108 8.91992 12.9656 10.2998 12.9656 10.2998V9.1748H10.4862V17.5244H12.9656V13.1411C12.9656 11.9673 13.5056 11.2676 14.5403 11.2676C15.4907 11.2676 15.9471 11.939 15.9471 13.1411V17.5244Z" fill="#C5C5C5"/>
</svg>
