<svg width="24" height="24" viewBox="0 0 24 24" fill="none" xmlns="http://www.w3.org/2000/svg">
<path fill-rule="evenodd" clip-rule="evenodd" d="M12 24C18.6274 24 24 18.6274 24 12C24 5.37256 18.6274 0 12 0C5.37256 0 0 5.37256 0 12C0 18.6274 5.37256 24 12 24ZM17.0115 10.3657C17.111 10.3657 17.2078 10.3594 17.3073 10.3506L17.31 10.3442V8.14648C15.757 8.02246 14.5107 6.69775 14.3477 5H12.6234L12.6041 14.2275C12.6041 15.3613 11.6921 16.2524 10.6614 16.2524C9.63068 16.2524 8.7934 15.334 8.7934 14.2031C8.7934 13.0723 9.63068 12.1538 10.6614 12.1538C10.705 12.1538 10.7478 12.1587 10.7902 12.1646L10.888 12.1782V10.1987L10.7698 10.1899C10.7341 10.188 10.6981 10.1865 10.6614 10.1865C8.63867 10.1865 7 11.9844 7 14.2031C7 16.4224 8.63586 18.2197 10.6586 18.2197C12.6814 18.2197 14.3201 16.4224 14.3201 14.2031V8.771C14.9142 9.76514 15.9256 10.3657 17.0115 10.3657Z" fill="#C5C5C5"/>
</svg>
