<svg width="32" height="32" viewBox="0 0 32 32" fill="none" xmlns="http://www.w3.org/2000/svg">
<g clip-path="url(#clip0_398_494)">
<path d="M15.7797 9.27635C17.6623 10.5438 20.2094 11.5242 21.9983 12.8495C22.385 13.1329 22.5928 13.5625 22.5038 14.0443L15.3035 26.605C14.9587 27.0681 14.5754 27.0618 14.0588 27.1075C13.9414 27.3407 13.5606 27.7917 13.5826 28.0366C13.6155 28.3221 13.9998 28.5354 13.8329 29.0926C13.7214 29.4496 13.1276 30.4483 12.8942 30.778C12.5224 31.3029 11.9869 31.4409 11.4191 31.1733C9.35779 30.2154 7.31781 28.6248 5.24663 27.6096C4.90679 27.379 4.70472 26.9098 4.79244 26.5046C4.86699 26.1521 5.61274 24.8455 5.85698 24.5565C6.2628 24.077 6.79939 24.3094 6.98378 24.1837C7.09496 24.1103 7.39286 23.5943 7.45544 23.4413C7.57586 23.1582 7.39846 23.1676 7.32732 22.9631C7.19866 22.605 7.16003 22.3591 7.31869 21.995L14.446 9.65008C14.7657 9.21548 15.2724 9.11243 15.777 9.26618L15.7797 9.27635Z" fill="white"/>
<path d="M22.9813 12.2041L15.9704 8.15636C17.3609 5.61388 19.8253 3.57964 22.5308 2.58755C24.1547 1.99433 24.2522 2.09361 24.5375 3.78907C25.0052 6.61325 24.4906 9.73883 22.9878 12.2078L22.9813 12.2041Z" fill="white"/>
</g>
<defs>
<clipPath id="clip0_398_494">
<rect width="9.27221" height="31.3468" fill="white" transform="translate(20) rotate(30)"/>
</clipPath>
</defs>
</svg>
