<svg width="40" height="40" viewBox="0 0 40 40" fill="none" xmlns="http://www.w3.org/2000/svg">
<g clip-path="url(#clip0_398_494)">
<path d="M15.6568 12.9524C18.4869 13.1479 21.8569 12.6173 24.6218 12.9338C25.2176 12.999 25.711 13.3341 25.9158 13.9113L25.9717 32.0089C25.8879 32.7257 25.4689 32.9585 24.9383 33.3308C24.9569 33.6567 24.8266 34.3828 25.0035 34.6342C25.2176 34.9227 25.7668 34.9134 25.9344 35.621C26.0368 36.0771 26.0182 37.5294 25.9717 38.0321C25.8972 38.8327 25.4038 39.3168 24.6218 39.382C21.7917 39.6333 18.5893 39.1865 15.7126 39.382C15.2006 39.3447 14.6886 38.963 14.5303 38.4696C14.3907 38.0414 14.3814 36.1609 14.4652 35.6954C14.6048 34.9227 15.331 34.839 15.452 34.5876C15.5264 34.4387 15.5264 33.6939 15.4985 33.4891C15.452 33.1074 15.2658 33.2284 15.061 33.0515C14.6979 32.7443 14.5024 32.5023 14.4466 32.0089L14.4466 14.1906C14.521 13.5203 15.0051 13.0921 15.6475 12.9431L15.6568 12.9524Z" fill="white"/>
<path d="M25.2826 11.6209H15.1632C15.0795 7.99955 16.4759 4.25715 18.7846 1.49224C20.1717 -0.164838 20.3393 -0.118291 21.7078 1.53879C23.9793 4.3037 25.3757 8.00886 25.2919 11.6209H25.2826Z" fill="white"/>
</g>
<defs>
<clipPath id="clip0_398_494">
<rect width="11.5903" height="39.1835" fill="white" transform="translate(14.4277 0.272949)"/>
</clipPath>
</defs>
</svg>
